<svg aria-hidden="true" xmlns="http://www.w3.org/2000/svg"><defs><symbol id="icon-VF_Logo_hoch_rot_2" viewBox="0 0 71 32"><path d="M30.706 8.893h-6.483V2.564H7.517v10.057H3.064v16.73h16.718v-3.74h10.936V8.893zM7.837 2.885h16.065v5.996h-9.903v3.74H7.836V2.884zm6.483 16.41h5.13v5.996h-5.13v-5.996zm0-.332v-6.02h5.13v6.02h-5.13zm-6.483-6.009H14v6.02H7.837v-6.02zm6.483-.332V9.214h9.582v9.748h-4.12v-6.341H14.32zm5.129 16.41H3.384V12.955h4.12v6.341h6.483v6.329h5.45v3.408zm10.936-3.741H19.77v-5.996h4.453V9.214h6.163v16.077zM67.622 23.012h-3.396v.332h1.52v5.996h.368v-5.996h1.52v-.332zm-6.662 6.423c.356 0 .677-.095.974-.297.297-.19.534-.463.701-.796s.261-.701.261-1.104v-4.227h-.368v4.191c0 .344-.071.665-.214.95s-.332.522-.57.689c-.237.166-.499.249-.784.249s-.546-.083-.784-.249a1.695 1.695 0 0 1-.558-.689 2.107 2.107 0 0 1-.202-.95v-4.191h-.368v4.227c0 .404.083.772.261 1.104.166.332.404.594.701.796.273.202.594.297.95.297zm-3.265-6.423h-3.396v.332h1.52v5.996h.368v-5.996h1.52v-.332zm-5.165 6.34h.368v-6.329h-.368v6.329zm-1.413-6.34h-3.396v.332h1.52v5.996h.368v-5.996h1.52v-.332zm-5.996 6.423c.285 0 .558-.059.819-.19.261-.119.463-.309.629-.558s.237-.558.237-.902c0-.332-.071-.606-.202-.831s-.297-.404-.499-.534a9.167 9.167 0 0 0-.772-.439 12.8 12.8 0 0 1-.701-.392 1.369 1.369 0 0 1-.427-.439 1.167 1.167 0 0 1-.178-.653c0-.392.107-.689.332-.902s.475-.321.772-.321c.226 0 .439.059.629.178s.344.273.463.463l.273-.226a1.784 1.784 0 0 0-.582-.534 1.563 1.563 0 0 0-.784-.214c-.249 0-.487.059-.712.178s-.404.285-.558.522c-.142.237-.214.522-.214.867 0 .332.071.606.202.831s.297.404.487.534c.19.131.451.285.772.439.297.142.522.273.701.392.166.107.321.261.439.439s.178.404.178.665-.059.499-.178.689-.273.344-.475.439a1.345 1.345 0 0 1-.641.154c-.332 0-.629-.095-.891-.297s-.439-.439-.534-.748l-.309.166c.119.344.344.641.653.879.321.226.677.344 1.069.344zm-3.598-6.412v5.593l-3.515-5.593h-.309v6.329h.368v-5.593l3.515 5.593h.309v-6.329h-.368zm-6.032 6.329h.368v-6.329h-.368v6.329zM60.948 19.224h2.422v-.332h-2.054v-5.996h-.368v6.329zm-.997 0-2.897-3.443 2.767-2.885h-.487l-2.636 2.79v-2.79h-.368v6.329h.368v-3.313l2.743 3.313h.511zm-5.818-6.329v5.593l-3.515-5.593h-.309v6.329h.368v-5.593l3.515 5.593h.309v-6.329h-.368zm-8.727 4.583 1.354-4.132 1.365 4.132h-2.719zm3.3 1.746h.416l-2.149-6.329h-.416l-2.137 6.329h.404l.463-1.413h2.945l.475 1.413zm-8.584-3.266v-2.731h1.567c.214 0 .427.059.617.178s.344.285.451.499a1.51 1.51 0 0 1 0 1.378c-.107.214-.261.38-.451.499s-.392.178-.617.178h-1.567zm1.757.309c.261-.024.499-.107.712-.261s.38-.356.511-.606.19-.511.19-.807c0-.309-.071-.594-.214-.855s-.332-.463-.582-.617a1.446 1.446 0 0 0-.796-.226h-1.935v6.329h.368v-2.933h1.377l1.734 2.933h.416l-1.781-2.957zm-3.301-3.028v-.332h-3.075v6.329h.368v-2.992h2.375v-.332h-2.375v-2.66h2.707zM59.072 5.83V3.099h1.567c.214 0 .427.059.617.178s.344.285.451.499a1.51 1.51 0 0 1 0 1.378c-.107.214-.261.38-.451.499s-.392.178-.617.178h-1.567zm1.746.321c.261-.024.499-.107.712-.261s.38-.356.511-.606c.131-.249.19-.511.19-.807 0-.309-.071-.594-.214-.855s-.332-.463-.582-.617a1.446 1.446 0 0 0-.796-.226h-1.935v6.329h.368V6.163h1.377l1.734 2.933h.416l-1.781-2.945zm-6.887 2.683c-.487 0-.926-.131-1.33-.392s-.724-.606-.962-1.045c-.237-.439-.356-.926-.356-1.46s.119-1.009.356-1.46a2.72 2.72 0 0 1 .962-1.045c.404-.261.843-.392 1.33-.392s.926.131 1.33.392.724.606.962 1.045.356.926.356 1.46c0 .534-.119 1.009-.356 1.46a2.72 2.72 0 0 1-.962 1.045 2.392 2.392 0 0 1-1.33.392zm0 .344c.546 0 1.045-.143 1.508-.439.463-.285.831-.689 1.092-1.187s.404-1.045.404-1.639-.131-1.14-.404-1.639a3.18 3.18 0 0 0-1.092-1.187c-.463-.285-.962-.439-1.508-.439s-1.045.143-1.508.439c-.463.285-.819.689-1.092 1.187s-.404 1.045-.404 1.639.131 1.14.404 1.639c.273.499.629.891 1.092 1.187s.962.439 1.508.439zm-3.835-6.423H46.7v.332h1.508v5.996h.368V3.099h1.52v-.344zm-3.966 6.34-2.897-3.443L46 2.767h-.487l-2.636 2.79v-2.79h-.368v6.329h.368V5.795l2.743 3.313h.511zm-5.806 0h.368V2.766h-.368v6.329zm-1.39-6.328-1.935 5.83-1.935-5.83h-.404l2.149 6.329h.392l2.149-6.329h-.416z"/></symbol><symbol id="icon-logo_horyzonty" viewBox="0 0 121 32"><path d="M26.35.8c-8.85 1.95-16.75 6-23 11.7C.3 15.35 0 15.75.7 16.4c.7.7 1.1.5 3.9-2.2C18.7.7 40.15-2.5 57.75 6.25c2.5 1.2 3.95 1.8 3.25 1.25-2.2-1.7-8.25-4.4-12.8-5.8C42.5.05 31.75-.45 26.35.8z"/><path d="M31.7 4.3C27 6 23.2 11.05 22.65 16.4c-.3 2.75-.3 2.75.9 2.4 5.15-1.45 7-1.8 9.55-1.8 3.35 0 8.3.95 7.45 1.45-.3.2.2.35 1.1.35 1.75 0 6.7 2.7 6.5 3.55-.2.9 2.05.3 2.4-.65.7-1.7.45-6.45-.4-9-1.1-3.3-5.05-7.25-8.35-8.35-3-1-7.3-1.05-10.1-.05zm10.9 5.05c1.1 1 1.15 2.55.05 3.75-1.1 1.25-2.95 1.15-3.85-.2-1-1.45-1-2.35.05-3.5 1-1.1 2.55-1.15 3.75-.05z"/><path d="M27 18.5c0 .3.35.5.75.5s.75-.1.75-.2-.35-.3-.75-.5c-.4-.15-.75-.05-.75.2zM38 18.5c0 .25.25.5.55.5.25 0 .35-.25.2-.5-.15-.3-.4-.5-.55-.5-.1 0-.2.2-.2.5zM23.1 20.25c-.05 1.5 1.2 4.5 1.8 4.4.3-.1.45.15.3.5-.3.9 3.85 4.7 6.2 5.75 2.8 1.2 8.3 1.05 11.1-.35 1.25-.6 2.7-1.45 3.25-1.95 1.5-1.25 3.95-4.6 3.6-4.9-.15-.15-.55.25-.85.9-.95 1.8-3.1 3.9-3.65 3.55-.3-.15-.35-.05-.15.25.2.35.05.65-.3.65-.35.05-.95.1-1.3.15-.35 0-.85.35-1.1.75-.25.45-1.35.75-3.1.8-1.45 0-2.9.2-3.2.4-.3.15-.7.2-.9 0-.15-.15-.9-.4-1.65-.45-.75-.1-1.45-.4-1.55-.7-.1-.25-.4-.4-.65-.25-.25.2-.7.05-1.05-.2-.35-.3-1.4-1.1-2.25-1.85-1.05-.8-1.65-1.75-1.65-2.5 0-.7-.3-1.2-.7-1.2-.8 0-1.45-1.35-1-2.05.15-.25.05-.45-.25-.45-.25 0-.6-.5-.7-1.15-.2-.9-.2-.95-.25-.1zM57.5 23.75c0 1.85.2 3.25.5 3.25s.5-.7.5-1.5c0-1.35.15-1.5 1.5-1.5s1.5.15 1.5 1.5c0 .8.25 1.5.5 1.5.3 0 .5-1.4.5-3.25s-.2-3.25-.5-3.25c-.25 0-.5.55-.5 1.25 0 1.05-.25 1.25-1.5 1.25s-1.5-.2-1.5-1.25c0-.7-.2-1.25-.5-1.25s-.5 1.4-.5 3.25zM66.1 21.35c-1.55 1.35-1.75 2.8-.6 4.25 1.35 1.8 3.3 2.05 4.85.7 1.65-1.4 1.7-3.65.15-4.9-1.4-1.15-3.1-1.15-4.4-.05zm4.3 1.05c.8 1.1.75 2.1-.25 3.2-1.6 1.75-4.65.5-4.65-1.9 0-2.35 3.35-3.25 4.9-1.3zM74.35 20.85c-.55.5-.4 6.15.15 6.15.3 0 .5-.6.5-1.4v-1.35l1.25 1.5c1.25 1.55 1.7 1.45.65-.25-.5-.75-.45-1.1.25-1.9 1.05-1.15 1.05-1.35.05-2.3-.8-.8-2.3-1.05-2.85-.45zM77 22.5c0 .65-.35 1-1 1s-1-.35-1-1 .35-1 1-1 1 .35 1 1zM80.45 22.2c.6.9 1.05 2.35 1.05 3.25 0 .85.25 1.55.5 1.55.3 0 .5-.7.5-1.5 0-.85.35-2.25.8-3.05.4-.85.65-1.65.5-1.8s-.55.3-.85 1.05c-.75 1.6-1.1 1.65-1.95.05-.35-.7-.85-1.25-1.15-1.25-.25 0 .05.75.6 1.7zM86.5 21c0 .25.55.5 1.25.5 1.55 0 1.55-.05 0 3L86.5 27l2.1-.05c1.5-.1 1.75-.15.8-.3-1.7-.25-1.75-.85-.15-3.4.65-1.1 1.25-2.15 1.25-2.4 0-.2-.9-.35-2-.35s-2 .2-2 .5zM93.55 21.8c-1.2 1.55-1.25 1.75-.45 3.45 1.45 3.2 6.4 2.05 6.4-1.55 0-3.1-4-4.4-5.95-1.9zm4.85.6c.8 1.05.75 1.65-.2 3-1.4 2-4.7.85-4.7-1.7 0-2.35 3.35-3.25 4.9-1.3zM106.7 21.25c-.2.4-.2 1.45-.1 2.25.15.85.1 1.5-.05 1.5s-1.25-.95-2.4-2.1L102 20.8l.1 3.2c.05 2.95.1 3.05.25.8l.2-2.45 4.95 4.85v-3.35c0-3.3-.25-4.1-.8-2.6zM109.5 21c0 .25.35.5.75.5.6 0 .75.65.75 2.75 0 1.5.25 2.75.5 2.75.3 0 .5-1.25.5-2.75 0-2.1.15-2.75.75-2.75.4 0 .75-.25.75-.5 0-.3-.9-.5-2-.5s-2 .2-2 .5zM115.5 20.6c0 .2.45 1.1 1 2s1 2.3 1.05 3.15c.05 1.45.05 1.45.4-.25.2-.95.75-2.4 1.25-3.15s.8-1.5.65-1.65c-.15-.15-.65.3-1.15 1.05l-.85 1.3-1.15-1.4c-.65-.75-1.15-1.25-1.2-1.05z"/></symbol><symbol id="icon-logo_profeto" viewBox="0 0 116 32"><path d="M11.897 1.997c-1.915 1.942-2.38 3.118-1.778 4.595.656 1.532 2.544 1.86 3.556.574.52-.629.574-.93.41-1.969-.301-1.723-.301-3.884-.027-4.458.465-.985-.465-.438-2.161 1.258zM68.403 5.333c-.656.219-1.614.766-2.106 1.258-1.313 1.258-1.75 2.844-1.75 6.154v2.817l-1.012.082c-.848.055-1.067.191-1.121.738-.109.766.328 1.121 1.395 1.121h.738v4.267c0 4.075-.027 4.267-.574 4.403-.41.109-.52.328-.465.875.082.629.219.711 1.285.793 2.844.219 3.036-.191 3.036-5.935 0-2.38.055-4.376.109-4.431.082-.055.684-.082 1.34-.027 1.203.109 1.231.137 1.532 1.231.793 3.118 3.145 4.841 6.564 4.841 2.024 0 3.227-.383 4.185-1.285.985-.93.957-1.477-.055-2.079-.629-.383-.93-.41-1.368-.191-.301.164-.547.41-.547.574 0 .137-.301.574-.684.93-1.532 1.559-4.075.492-4.759-1.942s-.93-2.297 4.485-2.297h4.786v-.93c0-3.009-2.626-5.142-6.263-5.115-3.2 0-5.06.985-5.935 3.173l-.52 1.231h-2.872v-3.091c.027-4.403.957-6.209 3.255-6.209.766 0 1.149.219 2.051 1.231 1.258 1.368 1.641 1.45 2.598.711.82-.629.656-1.34-.492-2.133-1.778-1.203-4.485-1.504-6.838-.766zm10.667 8.041c.465.465.793 1.094.793 1.504v.711h-2.872c-2.981 0-3.145-.055-2.571-1.176.711-1.34 1.395-1.832 2.653-1.832.957 0 1.34.164 1.997.793z"/><path d="M85.415 5.689c-1.395.684-1.778 1.203-1.176 1.559.164.082.273.903.273 1.778v1.614l-1.149.082c-1.039.082-1.176.164-1.176.766s.137.684 1.176.766l1.149.082v4.978c0 6.154.027 6.209 2.626 6.209 1.696 0 1.75-.027 1.75-.711 0-.465-.164-.766-.547-.848-.52-.137-.547-.383-.547-4.896v-4.732l1.313-.082c1.176-.082 1.285-.137 1.285-.766 0-.602-.137-.711-1.231-.82l-1.231-.137-.137-2.735c-.164-3.173-.219-3.227-2.379-2.106zM3.337 10.475c-1.969.629-3.583 3.473-3.227 5.744.52 3.2 4.568 8.342 9.573 12.089 2.735 2.079 3.173 2.188 4.321 1.285 2.27-1.805 6.591-7.685 7.467-10.174.93-2.653.301-5.962-1.45-7.439-2.133-1.778-4.786-1.997-7.603-.629-1.368.684-1.614.711-2.133.383-1.832-1.176-3.036-1.614-4.513-1.586-.848.027-1.942.164-2.434.328zM40.424 11.077c-1.45.766-1.778 1.149-1.34 1.586.191.191.301 1.832.301 4.732 0 4.185-.027 4.431-.547 4.568-.383.082-.547.383-.547.848v.711h5.47v-.711c0-.465-.164-.766-.547-.848-.52-.137-.547-.383-.547-3.556 0-3.583.273-4.704 1.34-5.279.875-.438 2.352-.328 3.118.274.93.738 1.395.684 2.106-.191.793-1.012.602-1.532-.684-1.942-1.313-.438-3.009-.274-4.65.465l-1.203.52-.082-.848c-.109-1.094-.574-1.176-2.188-.328zM26.475 11.624c-1.586.848-1.668.985-1.176 1.942.328.656.41 2.215.41 8.67v7.85l-.684.273c-.738.273-.875.793-.356 1.313.465.465 2.735.41 3.446-.109.574-.383.602-.602.602-4.485v-4.075l.875.273c1.778.492 4.376.301 5.908-.465 2.133-1.067 2.926-2.544 2.926-5.443 0-1.75-.137-2.434-.629-3.337-1.176-2.27-3.747-3.227-7.275-2.762-1.039.137-1.75.109-1.915-.055-.383-.383-.684-.328-2.133.41zm7.385 1.586c1.969 2.106 1.832 7.029-.246 8.506-.821.574-2.407.547-3.145-.055-2.133-1.696-2.133-7.193 0-8.67.875-.629 2.708-.52 3.391.219zM53.853 11.214c-3.282.547-4.896 2.598-4.896 6.209 0 2.188.629 3.747 1.887 4.814 1.094.93 2.434 1.285 4.704 1.285 2.598 0 4.458-.985 5.443-2.872.93-1.832.957-4.896.055-6.619-.711-1.368-2.215-2.434-3.747-2.68-.602-.082-1.34-.219-1.641-.246-.301-.055-1.121 0-1.805.109zm3.255 1.996c2.626 2.79 1.422 8.944-1.723 8.944-1.368 0-1.942-.383-2.653-1.723-1.149-2.243-.629-6.345.985-7.439.875-.629 2.708-.52 3.391.219z"/><path d="M94.605 11.241c-3.337.52-5.032 2.653-5.005 6.291.027 2.708 1.641 5.087 3.856 5.689 1.668.465 4.458.356 5.744-.246 1.094-.492 1.149-.574.903-1.231-.711-1.832-.082-3.528 1.45-3.911.492-.137.903-.438.957-.684.191-.957-.793-3.473-1.696-4.376-1.258-1.285-3.856-1.915-6.209-1.532zm3.31 2.106c1.258 1.285 1.723 3.856 1.067 6.181-.711 2.571-3.309 3.501-4.896 1.805-1.778-1.887-1.641-6.756.191-8.205 1.067-.821 2.68-.738 3.638.219zM104.424 16.328c-.547.602-.656 1.586-.191 1.887.492.301.848-.328.738-1.395-.082-.985-.082-1.012-.547-.492z"/><path d="M101.962 19.036c-.246.082-.574.492-.766.93-.273.684-.246.985.246 2.024.574 1.176 2.735 3.446 3.309 3.446.41 0 2.161-2.462 2.407-3.419.273-.93-.027-2.297-.547-2.653-.191-.109-.957-.191-1.723-.164-.738.027-1.614-.027-1.915-.109-.301-.109-.738-.109-1.012-.055zM74.94 25.901c-.328.082-.41.574-.41 2.407v2.325h.766c.684 0 .738-.082.602-.738-.164-.738-.164-.738.246-.246.246.301.438.629.438.766 0 .109.738.219 1.668.219 1.422 0 1.641-.055 1.504-.438-.082-.246-.164-1.285-.164-2.352 0-1.778-.027-1.887-.602-1.805-.547.082-.574.219-.52 2.188.055 2.27-.164 2.598-.93 1.395-.383-.574-.41-.82-.164-1.231.41-.656.383-.766-.137-.766-.246 0-.656.273-.957.602l-.492.629-.027-1.422c0-1.477-.137-1.696-.82-1.532zM71.904 27.843c-.711.602-.574 1.395.301 1.614.301.082.547.273.547.41 0 .164-.301.191-.684.109-.903-.219-.903.328 0 .656 1.039.383 2.106-.164 1.997-1.067-.055-.465-.273-.738-.629-.793a2.078 2.078 0 0 1-.82-.383c-.191-.191 0-.246.629-.137 1.039.219 1.176-.246.164-.629-.875-.356-.766-.356-1.504.219zM80.602 28.116c-1.368 1.504.711 3.583 2.297 2.27l.656-.547-1.012.164c-1.285.191-1.368-.246-.137-.602.684-.219.875-.41.875-.957 0-.602-.137-.684-1.121-.766-.793-.055-1.231.055-1.559.438zm1.668.383c-.082.191-.328.383-.574.438-.328.055-.41-.027-.301-.328.191-.52 1.039-.602.875-.109zM84.075 27.87c-.137.082-.246.985-.246 2.024 0 1.504.082 1.86.465 1.997.656.191 1.039-.082 1.039-.711 0-.356.137-.465.41-.383.656.273 1.778-.629 1.778-1.422 0-1.34-.438-1.75-1.887-1.723-.738.027-1.45.109-1.559.219zm2.243.957c.191.793-.027 1.258-.602 1.258-.246 0-.383-.301-.383-.957 0-1.121.711-1.34.985-.301zM89.436 28.062c0 .301.164.383.547.246.656-.219.711.191.109.684-.738.629-1.039 1.395-.629 1.668.547.356 1.997.301 2.379-.082.52-.52.383-.793-.356-.602-.848.219-.848.164 0-.985.356-.492.602-1.012.52-1.121-.082-.137-.684-.246-1.368-.246-.903 0-1.203.109-1.203.438zM94.25 28.062c-.602.574-.438.985.492 1.45.547.246.684.438.465.656-.191.191-.41.164-.711-.082-.219-.191-.52-.273-.629-.164-.246.273.738.985 1.34.985.246 0 .738-.219 1.067-.492.711-.574.492-1.368-.438-1.586-.356-.082-.656-.301-.656-.438 0-.164.301-.191.711-.109.52.137.684.082.602-.164-.191-.547-1.723-.602-2.243-.055z"/><path d="M97.586 28.089c-.766.903-.793 1.45-.082 2.161.82.82 1.805.848 2.489.055.52-.574.52-.574-.027-.383-.848.356-1.285.328-1.422-.055-.082-.191.109-.328.41-.328.875 0 1.477-.738 1.149-1.395-.383-.684-1.942-.711-2.516-.055zm1.559.328c.082.164-.109.41-.41.574-.438.219-.547.219-.547-.082 0-.684.629-.985.957-.492zM100.896 27.843c-.027.109-.027.793-.027 1.559 0 1.258.055 1.368.629 1.368.492 0 .629-.137.574-.52-.164-.848.191-1.805.656-1.805.246 0 .383-.137.328-.328-.137-.356-2.106-.602-2.161-.273zM103.932 28.171c-.301.301-.547.793-.547 1.094 0 1.313 1.942 2.133 2.872 1.203.574-.574.356-.793-.383-.383-.766.41-1.121.137-1.121-.82 0-.93.41-1.285.957-.82.547.438 1.094.082.656-.438-.465-.547-1.805-.465-2.434.164z"/><path d="M107.35 28.308c-.82.793-.848 1.34-.137 2.051.602.602 1.887.738 2.407.219.547-.547.356-.766-.356-.438-.492.219-.793.219-.985.027-.219-.219 0-.383.684-.629 1.012-.328 1.285-.957.656-1.586-.52-.52-1.559-.383-2.27.356zm1.505.246c0 .219-.191.438-.41.547-.41.137-.574-.383-.219-.738.301-.328.629-.219.629.191zM110.769 27.843c-.137.055-.273.766-.273 1.586 0 1.395.027 1.477.684 1.477.629 0 .684-.109.684-1.231 0-.957.109-1.231.438-1.231.383 0 .438.219.328 1.231-.137 1.149-.109 1.231.492 1.231s.656-.109.656-1.231c0-.93.109-1.231.438-1.231s.41.246.328 1.149c-.055 1.094-.027 1.176.602 1.176s.656-.082.602-1.231c-.055-.684-.219-1.368-.356-1.504-.246-.246-3.966-.41-4.622-.191z"/></symbol><symbol id="icon-logo_pallotti" viewBox="0 0 62 32"><path d="M3.561.546c.244 1.823.311 2.478.42 3.822.227 2.805.227 3.024.067 3.024-.991.008-2.688.235-3.519.479l-.445.118v2.721l1.529-.025c.848-.017 1.772-.008 2.066.025l.521.059v.764c0 .428-.042 1.411-.084 2.201-.336 5.778-1.268 11.313-2.772 16.521-.185.638-.336 1.209-.336 1.285 0 .109.21.126 1.495.126h1.503l.084-.361c.05-.193.336-1.277.638-2.41.966-3.561 1.655-6.963 2.041-9.995.151-1.251.244-5.652.143-6.786-.059-.571-.05-.773.025-.773.319 0 2.461.857 5.35 2.142.269.118.462.168.428.109-.126-.21-.512-.722-2.066-2.721L9.078 8.838l-.865-.42c-.479-.235-1.092-.487-1.369-.571-.277-.076-.538-.168-.571-.202-.042-.034-.143-.361-.235-.722C5.584 5.134 4.635 2.514 3.863.926c-.311-.63-.344-.672-.302-.378z"/><path d="M10.297 8.827c1.394 1.781 3.368 4.359 3.586 4.703.563.882.697 1.663.395 2.251-.428.84-1.663 1.545-4.577 2.604a95.76 95.76 0 0 0-1.445.538c-.05.059-.613 2.604-.58 2.637.067.067 1.713-.227 2.704-.487 3.494-.89 6.408-2.587 7.189-4.183.252-.496.277-.622.277-1.31 0-.722-.017-.806-.328-1.436-.613-1.243-2.352-2.738-4.628-3.998-1.655-.907-2.688-1.436-2.595-1.319zM56.676 11.918a3.788 3.788 0 0 0-2.276 2.007c-.252.521-.269.63-.269 1.453 0 .848.008.907.311 1.512.344.689.949 1.369 1.067 1.184.042-.067-.034-.218-.218-.42-1.209-1.31-1.235-3.192-.067-4.451.924-.999 2.276-1.411 3.528-1.075 2.679.714 3.612 3.796 1.722 5.661-.227.227-.563.479-.756.563-.218.101-.336.21-.336.311 0 .193.017.193.428-.025.428-.21 1.025-.756 1.335-1.218.664-.957.773-2.343.277-3.418-.302-.638-.974-1.394-1.52-1.713-.899-.529-2.243-.68-3.225-.37z"/><path d="M57.054 12.724a2.968 2.968 0 0 0-1.806 1.495c-.16.294-.193.487-.193 1.151 0 .706.025.848.227 1.218.328.596.554.848.672.731.059-.059.008-.193-.176-.454-.756-1.05-.664-2.276.244-3.183.563-.571 1.1-.781 1.949-.773 1.352.017 2.461 1.025 2.57 2.335.067.907-.294 1.646-1.092 2.226-.202.143-.286.26-.235.328.084.151.454-.05.857-.47 1.167-1.209.941-3.225-.47-4.174-.756-.512-1.747-.68-2.545-.428z"/><path d="M57.163 13.648c-1.109.395-1.562 1.781-.907 2.797.109.16.143.176.202.076.042-.076 0-.277-.109-.521-.344-.781-.017-1.613.789-2.016.68-.336 1.344-.244 1.907.26.672.605.748 1.461.202 2.175-.412.546-.361.756.084.336.487-.454.697-1.386.445-1.999-.412-.974-1.587-1.478-2.612-1.109z"/><path d="M57.566 14.967c-.193.092-.37.403-.37.655 0 .084.092.269.21.403.118.143.21.302.202.361 0 .067-.193.857-.437 1.755l-.437 1.638-3.989.042c-3.595.042-4.015.059-4.258.185a1.956 1.956 0 0 0-.907 1.117c-.168.563-1.218 7.408-1.218 7.945 0 .512.227.932.613 1.151.244.126.672.143 4.846.143 3.511 0 4.645-.025 4.88-.109.37-.126.89-.63 1.05-.991.126-.294 1.293-7.677 1.293-8.172a1.31 1.31 0 0 0-1.016-1.26c-.252-.05-.286-.092-.277-.311.008-.134.042-.916.076-1.73l.059-1.478.252-.109c.479-.202.571-.848.168-1.167-.227-.185-.462-.202-.739-.067zm-5.325 7.618c0 .134-.025.361-.05.504l-.05.26h-2.822l-.05.311c-.034.176-.076.42-.101.546l-.05.235h1.058c1.176 0 1.184.008.932.546-.185.378-.428.462-1.335.462h-.789l-.092.521c-.05.294-.134.823-.193 1.176l-.101.655h-.571c-.554 0-.571-.008-.529-.185.017-.109.193-1.176.378-2.377.193-1.201.386-2.293.437-2.419.168-.428.37-.47 2.234-.479h1.697v.244zm2.067 1.604c.101.991.193 1.898.21 2.016.025.143.286-.403.873-1.806l.84-2.016.823-.025c.798-.025.815-.017.815.168s-.714 4.703-.798 5.081c-.042.176-.092.193-.546.193-.412 0-.504-.025-.504-.134 0-.076.134-.966.302-1.982.16-1.016.286-1.856.269-1.873s-.403.873-.857 1.982l-.831 2.007h-1.142l-.042-.277a54.653 54.653 0 0 1-.176-1.739c-.218-2.478-.143-2.612-.806 1.445l-.092.571h-.538c-.521 0-.538-.008-.496-.185.017-.109.193-1.176.378-2.377.193-1.201.386-2.293.437-2.419.134-.353.437-.479 1.117-.454l.588.017.176 1.806zM17.47 19.889c0 .101-1.915 11.389-1.974 11.666l-.042.193h2.419l.05-.235c.286-1.361 1.814-10.843 1.772-11.019a.97.97 0 0 0-.26-.428c-.193-.185-.302-.202-1.092-.227-.546-.025-.873 0-.873.05zM20.116 25.76 19.1 31.706l1.176.025c.756.017 1.193-.008 1.226-.067.067-.109 1.856-10.801 1.848-11.078 0-.109-.126-.319-.286-.479l-.286-.286h-1.655l-1.008 5.938zM33.638 20.006c-.202.873-1.722 10.18-1.722 10.566 0 .403.042.538.21.747.118.134.344.294.504.344.319.101 2.679.16 2.78.067.034-.034.126-.445.202-.907l.143-.84h-.47c-.554 0-.848-.16-.848-.47 0-.118.193-1.344.42-2.721.235-1.377.42-2.528.42-2.553s.126-.05.277-.05c.454 0 .991-.336 1.209-.756.109-.202.193-.47.193-.605v-.235h-.672c-.479 0-.672-.034-.672-.109 0-.05.059-.504.143-.991.134-.873.134-.899-.025-1.176-.235-.403-.47-.496-1.31-.496-.697 0-.739.008-.781.185zM38.299 19.897c0 .042-.378 2.301-.84 5.014-.47 2.721-.865 5.157-.899 5.409-.05.546.109 1.008.428 1.218.26.176 1.873.328 2.62.244l.521-.05.101-.647c.05-.353.118-.739.143-.873l.05-.227h-.521c-.403 0-.546-.034-.68-.168-.092-.092-.168-.218-.16-.277 0-.05.202-1.268.437-2.704.336-1.991.47-2.604.563-2.62.983-.126 1.394-.479 1.545-1.31l.059-.311h-.672c-.37 0-.689-.025-.706-.067-.025-.034.008-.344.067-.689.067-.344.118-.815.118-1.041.008-.353-.025-.437-.277-.689-.286-.286-.286-.286-1.092-.286-.445 0-.806.034-.806.076zM42.919 19.855c0 .05-.244 1.403-.294 1.621l-.042.193h2.419l.05-.26a4.62 4.62 0 0 0 .05-.638c0-.319-.042-.42-.286-.664-.286-.286-.286-.286-1.092-.286-.445 0-.806.017-.806.034zM10.919 22.392c-1.335.26-2.453 1.092-2.906 2.175l-.118.294h1.159c1.075 0 1.176-.017 1.327-.176.235-.26.554-.403 1.058-.462.554-.067 1.369.092 1.587.311.244.244.202.638-.084.907-.311.286-.647.386-2.159.638-1.587.269-2.335.571-2.982 1.209-.361.37-.504.588-.655 1.016-.227.689-.311 1.604-.185 2.083.134.479.655 1.041 1.209 1.285.403.185.546.202 1.781.202 1.041-.008 1.453-.042 1.839-.16 1.613-.487 2.637-1.512 3.024-3.04.252-.999.731-4.25.68-4.569-.118-.697-.722-1.293-1.596-1.562-.412-.134-2.52-.235-2.982-.151zm1.889 5.089c-.176 1.176-.58 1.881-1.302 2.285-.412.235-.538.26-1.151.26-.638 0-.714-.017-.915-.227-.286-.277-.302-.806-.042-1.31.218-.42.588-.613 1.772-.89a16.532 16.532 0 0 0 1.218-.336c.479-.176.479-.176.42.218zM26.893 22.467a6.605 6.605 0 0 0-.924.353c-.63.302-1.655 1.327-2.007 1.999-1.083 2.1-1.142 4.897-.126 6.022 1.075 1.193 3.528 1.436 5.249.512 1.478-.79 2.578-2.822 2.713-5.023.126-1.848-.571-3.242-1.873-3.746-.638-.244-2.343-.311-3.032-.118zm1.907 2.117c.588.445.798 1.369.563 2.536-.277 1.377-.68 2.108-1.411 2.553-.722.454-1.646.361-2.117-.202-.277-.328-.42-1.05-.344-1.789.118-1.293.42-2.133.983-2.73.588-.63 1.722-.815 2.326-.37zM41.709 26.893a658.273 658.273 0 0 1-.781 4.619l-.042.235h2.419l.521-3.049c.949-5.602.916-5.3.748-5.644-.193-.412-.554-.546-1.419-.546h-.706l-.739 4.384z"/></symbol></defs></svg>