<svg xmlns="http://www.w3.org/2000/svg" width="50.172" height="85.092" viewBox="0 0 50.172 85.092">
  <g id="logomenu" transform="translate(-381.762 -393.483)">
    <path id="Path_660" data-name="Path 660" d="M431.066,478.528l-23.98-9.792a.632.632,0,0,0-.476,0l-23.98,9.792a.63.63,0,0,1-.867-.583V393.483h50.172v84.462A.63.63,0,0,1,431.066,478.528Z" transform="translate(0 0)" fill="#2d4b37"/>
    <path id="Path_661" data-name="Path 661" d="M429.49,444.5c-.079-.176-.145-.359-.231-.531-.076-.154-.09-.375-.23-.451-.156-.085-.31.093-.462.159a13.293,13.293,0,0,0-2.008,1.085h0a1.172,1.172,0,0,1-.327-.168,5.7,5.7,0,0,0-1.4-.471c-.069-.036-.15.008-.218-.034l-.161-.01c-.175-.038-.354.016-.528-.031-.188.048-.381-.008-.569.031l-.2.012c-.072.036-.154,0-.227.031-.271.056-.544.1-.812.171-.062.015-.122.036-.182.052a19.221,19.221,0,0,0-30.69,18.81l-.17-.088c-.123-.067-.174-.054-.233.075-.087.192-.2.373-.3.558-.231.423-.23.421.2.633.3.145.593.288.89.431a19.218,19.218,0,0,0,32.6,7.813,26.256,26.256,0,0,0,2.627,1.054c.4.134.8.261,1.2.389.127.041.2,0,.238-.137a5.807,5.807,0,0,1,.226-.776c.085-.208.028-.274-.172-.332a25.354,25.354,0,0,1-3.256-1.194,19.187,19.187,0,0,0-.075-24.229c.364-.285.734-.563,1.115-.826a3.863,3.863,0,0,1,.9-.55,1.905,1.905,0,0,1,.268.283,3.335,3.335,0,0,1,.66,1.656c.045.143-.008.292.031.435v.044c-.033.088.006.185-.03.273-.065.128-.022.271-.054.4a.44.44,0,0,0,0,.252c.158.17.312.158.423-.036a1.882,1.882,0,0,0,.136-.6,4.011,4.011,0,0,0,0-.717A4.4,4.4,0,0,0,427.8,446c-.086-.131-.223-.227-.273-.383.64-.323,1.259-.686,1.92-.967C429.541,444.607,429.519,444.566,429.49,444.5Zm-32.875,15.706a4.193,4.193,0,0,1-1.547-.362.827.827,0,0,0,.166-.03q.454-.134.913-.254a28.624,28.624,0,0,1,4.571-.852,3.867,3.867,0,0,0,.718-.074A7.192,7.192,0,0,1,396.615,460.208Zm11.694-10.589c-1.006,1.622-1.957,3.28-3.063,4.839a28.935,28.935,0,0,1-1.96,2.508c-.107.12-.222.234-.333.351l-.3,0h0a2.488,2.488,0,0,1-.672-1.658,4.7,4.7,0,0,1,.677-2.74,8.686,8.686,0,0,1,4.515-3.779,5.325,5.325,0,0,1,1.645-.325C408.638,449.1,408.471,449.357,408.309,449.618Zm.49,6.268c-.127-.077-.271-.026-.421.182a4.61,4.61,0,0,1-.639.7,5.219,5.219,0,0,1-1.518.976l-.033.013a.332.332,0,0,0-.059-.023,13.714,13.714,0,0,0-2.106-.35,16.648,16.648,0,0,0,2.423-3.2c.868-1.464,1.66-2.972,2.5-4.453a20.574,20.574,0,0,1,1.868-2.884c.262-.322.556-.617.791-.96l.021-.023h.006l-.044.047c-.086.154-.216.275-.309.425a7.99,7.99,0,0,0-1,2.559,18.093,18.093,0,0,0-.322,3.941c0,.533.019,1.067.031,1.6,0,.035,0,.07.005.106.061,1.086.148,2.172.118,3.262a2.783,2.783,0,0,1-.375,1.369c-.009.014-.02.026-.029.04a.5.5,0,0,0-.129-.106,12.778,12.778,0,0,0-2.357-1.1.6.6,0,0,0-.2-.047,6.309,6.309,0,0,0,1.148-.843,3.037,3.037,0,0,0,.662-.733C408.946,456.173,408.932,455.967,408.8,455.887Zm1.562,3.453a26.968,26.968,0,0,0,2.219-3.284q1.459-2.459,3-4.871a19.909,19.909,0,0,1,3.661-4.366,9.675,9.675,0,0,1,1.709-1.212,17.8,17.8,0,0,1,1.982,1.8q-.482.426-.948.872c-.645.618-1.259,1.267-1.858,1.931-.816.9-1.6,1.834-2.364,2.78-1.341,1.658-2.623,3.362-3.964,5.02-.641.793-1.306,1.567-1.981,2.33-.179.2-.194.2-.408.032a12.562,12.562,0,0,0-1.218-.874A.42.42,0,0,0,410.362,459.34Zm-.233-17.458a17.529,17.529,0,0,1,10.08,3.178,9.053,9.053,0,0,0-1.658,1.229c-.319.326-.65.643-.957.98a27.065,27.065,0,0,0-3.325,4.708c-1.024,1.766-2.019,3.549-3.081,5.292-.044.072-.067.166-.168.206a.3.3,0,0,1,0-.073,18.435,18.435,0,0,0,.666-4.658c.062-1.554.064-3.11.179-4.661a6.3,6.3,0,0,1,.377-1.955,5.513,5.513,0,0,1,.759-1.305c.059-.076.134-.156.051-.262a.211.211,0,0,0-.268-.051,1.742,1.742,0,0,0-.3.148,7.439,7.439,0,0,0-1.243,1.008,17.1,17.1,0,0,0-2.01,2.545.307.307,0,0,1-.268.156,7.52,7.52,0,0,0-1.108.136,8.23,8.23,0,0,0-3.846,2.022,10.043,10.043,0,0,0-1.567,1.785,5.461,5.461,0,0,0-.894,2.423c-.029.075,0,.159-.031.233l-.012.316a.9.9,0,0,0,0,.336c.029.229.027.459.076.686a4.521,4.521,0,0,0,.407,1h0a.832.832,0,0,1-.29.01c-.129.044-.266-.007-.4.031l-.321.012c-.073.034-.155,0-.229.029-.305.033-.611.058-.916.1a32.1,32.1,0,0,0-3.425.653c-.843.211-1.679.443-2.508.7h0a.771.771,0,0,1-.125-.466.837.837,0,0,1-.018-.271c0-.024,0-.024.058-.077a.571.571,0,0,0,.471.469,1.257,1.257,0,0,0,.421,0,1.136,1.136,0,0,0,.769-.852,1.781,1.781,0,0,0,0-.464.833.833,0,0,0-.684-.64,1.124,1.124,0,0,0-.379,0,1.4,1.4,0,0,0-1.191,1.275c-.031.09.007.187-.031.276a.063.063,0,0,1,0,.081c.042.1,0,.214.033.317a.928.928,0,0,0,.15.482.979.979,0,0,1-.371.156l-.507.177A17.65,17.65,0,0,1,410.129,441.882Zm-17.595,18.741c.019-.006.039-.012.058-.02.558-.21,1.121-.405,1.7-.559h0a3.764,3.764,0,0,0,1.776.647c.074.032.156,0,.23.031l.193.012a5.918,5.918,0,0,0,.885,0l.238-.012c.086-.039.182,0,.269-.031.1-.017.2-.037.3-.049a6.838,6.838,0,0,0,1.785-.481,11.3,11.3,0,0,0,2.7-1.6l.536.021c.116.036.241-.012.357.031l.276.012c.071.031.152-.007.221.031.337.044.677.065,1.008.136a11.7,11.7,0,0,1,2.065.586,9.688,9.688,0,0,1,1.486.72h0l-.016.083a.534.534,0,0,0,0,.252.2.2,0,0,0,.178.176.37.37,0,0,0,.209,0,1.131,1.131,0,0,1,.294-.145c.493.328.972.676,1.432,1.049-.361.376-.753.728-1.15,1.076-.415.364-.844.709-1.292,1.03a13.046,13.046,0,0,1-3.349,1.783,9.893,9.893,0,0,1-2.555.567c-.07.038-.15,0-.221.03l-.319.012c-.145.045-.3-.007-.441.031h-.677c-.156-.04-.319.016-.474-.031L399.95,466c-.073-.03-.155,0-.227-.03a9.434,9.434,0,0,1-1.526-.212,20.352,20.352,0,0,1-3.511-1.026c-.538-.206-1.068-.43-1.592-.666A17.527,17.527,0,0,1,392.534,460.624Zm17.595,16.524a17.661,17.661,0,0,1-16.527-11.49,25.541,25.541,0,0,0,2.935,1.012,15.961,15.961,0,0,0,3.12.57c.073.029.154-.005.226.029l.323.012c.158.038.323-.015.481.031h.766c.145-.045.3.006.441-.031l.319-.012c.074-.034.156,0,.23-.03.211-.031.423-.063.634-.092a12.008,12.008,0,0,0,3.2-.928A15.9,15.9,0,0,0,410,463.88c.547-.45,1.062-.935,1.579-1.417.042-.04.077-.144.165-.057.129.128.284.229.408.355,1.02,1.045,2.065,2.063,3.074,3.118.474.5.96.982,1.473,1.442.3.269.583.563.89.822.175.147.12.2.009.312-.485.476-.947.975-1.426,1.457-.648.65-1.266,1.329-1.923,1.971-.465.455-.909.932-1.361,1.4-.029.029-.085.048-.074.105.073.028.127-.012.183-.038q1.9-.9,3.807-1.792c.064-.03.125-.1.21-.051.05.06,0,.137.035.2l.011.2c.04.068,0,.149.031.218l.055.662c.035.072,0,.153.03.225l.012.2c.038.07,0,.151.031.222l.011.2c.04.069,0,.149.031.218.019.22.036.44.055.661.035.072,0,.154.03.227l.028.209c.158-.353.28-.708.4-1.063q.718-2.085,1.434-4.169c.048-.142.109-.145.216-.066.369.273.735.551,1.111.814a22.7,22.7,0,0,0,2.2,1.348A17.577,17.577,0,0,1,410.129,477.148Zm17.633-17.632a17.549,17.549,0,0,1-4.148,11.343c-.56-.3-1.111-.616-1.65-.96-.713-.453-1.393-.951-2.067-1.458-.112-.084-.2-.153-.121-.355.328-.878.618-1.772.923-2.659.02-.059.056-.111,0-.186a4.232,4.232,0,0,0-.529.553c-.35.366-.716.716-1.074,1.074a5.834,5.834,0,0,1-.387.439c-.061.05-.1.063-.172,0-.342-.323-.7-.63-1.035-.958q-1.482-1.443-2.914-2.936c-.55-.574-1.117-1.13-1.7-1.675-.339-.319-.326-.319-.006-.663.659-.707,1.277-1.451,1.882-2.2.559-.7,1.11-1.4,1.663-2.1.766-.969,1.526-1.942,2.3-2.906.485-.606.976-1.206,1.481-1.795.419-.49.861-.961,1.3-1.439a30.6,30.6,0,0,1,2.185-2.167c.032-.029.067-.055.1-.085A17.55,17.55,0,0,1,427.762,459.515Zm-3.6-13.132a19.392,19.392,0,0,0-1.5-1.442,5,5,0,0,1,3.109.181.316.316,0,0,0,.109.026.87.87,0,0,0-.077.047C425.235,445.564,424.693,445.966,424.164,446.383Z" transform="translate(-3.102 -16.837)" fill="#fff"/>
  </g>
</svg>
