<?xml version="1.0" standalone="no"?>
<!DOCTYPE svg PUBLIC "-//W3C//DTD SVG 20010904//EN"
 "http://www.w3.org/TR/2001/REC-SVG-20010904/DTD/svg10.dtd">
<svg version="1.0" xmlns="http://www.w3.org/2000/svg"
 width="1280.000000pt" height="1279.000000pt" viewBox="0 0 1280.000000 1279.000000"
 preserveAspectRatio="xMidYMid meet">

<g transform="translate(0.000000,1279.000000) scale(0.100000,-0.100000)"
fill="#000000" stroke="none">
<path d="M1220 6595 l0 -1565 1565 0 1565 0 0 390 0 390 -1137 0 c-625 0
-1134 2 -1132 4 2 3 49 12 104 21 864 139 1662 853 2024 1812 57 152 129 395
138 466 l6 47 -1567 0 -1566 0 0 -1565z"/>
<path d="M10795 8135 c-53 -53 -15 -149 58 -149 52 0 87 35 87 86 0 52 -35 88
-85 88 -25 0 -44 -8 -60 -25z"/>
<path d="M5207 8143 c-4 -3 -7 -181 -7 -395 l0 -388 80 0 80 0 0 192 0 193
193 -193 192 -192 109 0 109 0 -213 208 -213 207 187 182 c102 100 186 184
186 187 0 3 -46 6 -102 6 l-103 0 -172 -172 -173 -173 0 173 0 172 -73 0 c-41
0 -77 -3 -80 -7z"/>
<path d="M7270 7760 l0 -390 75 0 75 0 0 135 c0 74 3 135 8 134 4 0 61 -61
127 -134 l120 -134 98 0 c53 -1 97 1 97 3 0 3 -61 71 -135 151 -74 81 -135
150 -135 155 0 7 60 75 189 213 l35 37 -101 0 -100 0 -93 -102 c-52 -57 -97
-104 -102 -106 -4 -2 -8 93 -8 212 l0 216 -75 0 -75 0 0 -390z"/>
<path d="M10110 7760 l0 -390 75 0 74 0 3 136 3 136 124 -136 124 -136 100 0
99 0 -46 51 c-25 28 -89 98 -142 155 l-96 104 111 119 c61 65 111 121 111 125
0 3 -44 6 -97 5 l-98 -1 -95 -105 -95 -105 -3 216 -2 216 -75 0 -75 0 0 -390z"/>
<path d="M6266 7926 c-22 -8 -52 -24 -68 -36 l-28 -21 0 31 0 30 -75 0 -75 0
0 -280 0 -280 75 0 75 0 0 168 c0 150 2 170 20 200 37 60 134 81 197 42 l32
-19 11 37 c30 110 30 111 8 123 -34 18 -129 21 -172 5z"/>
<path d="M6693 7921 c-93 -32 -171 -111 -194 -195 -28 -102 14 -235 93 -298
108 -85 271 -91 373 -14 l35 27 0 -35 0 -36 75 0 75 0 0 280 0 280 -75 0 -75
0 0 -35 0 -34 -49 30 c-83 52 -168 62 -258 30z m217 -143 c85 -43 114 -130 68
-198 -32 -46 -66 -69 -118 -78 -84 -15 -147 8 -194 72 -28 38 -29 114 0 153
29 40 99 73 154 73 28 0 63 -9 90 -22z"/>
<path d="M8104 7931 c-141 -36 -233 -147 -234 -281 0 -111 64 -210 169 -262
38 -18 63 -23 141 -23 81 0 102 4 144 24 230 113 223 420 -12 523 -51 23 -157
32 -208 19z m156 -154 c103 -54 107 -196 8 -257 -23 -14 -51 -20 -88 -20 -147
0 -214 158 -108 257 51 48 122 55 188 20z"/>
<path d="M9663 7923 c-115 -48 -154 -153 -86 -233 31 -37 81 -64 177 -94 94
-30 116 -43 116 -65 0 -64 -139 -66 -193 -2 -12 15 -27 26 -32 25 -104 -29
-125 -37 -125 -48 0 -30 81 -105 136 -125 62 -24 170 -28 225 -10 82 28 133
92 131 166 -1 85 -54 135 -197 183 -48 16 -100 37 -113 46 l-26 17 23 18 c34
28 93 25 129 -6 37 -31 38 -31 107 0 61 27 63 36 13 81 -65 60 -201 82 -285
47z"/>
<path d="M8502 7922 c1 -5 68 -131 148 -280 l145 -272 65 0 65 0 35 85 c19 46
37 85 40 85 3 0 21 -37 41 -83 l35 -82 65 -3 64 -3 148 276 c81 152 147 278
147 281 0 3 -36 4 -81 2 l-80 -3 -75 -145 c-42 -80 -85 -163 -96 -185 l-21
-39 -28 54 c-15 30 -28 62 -29 71 0 9 27 69 61 133 l60 116 -84 0 -85 0 -18
-50 c-10 -27 -21 -50 -24 -50 -3 0 -13 23 -23 50 l-18 50 -79 0 c-44 0 -80 -2
-80 -5 0 -3 26 -58 59 -123 l59 -117 -33 -65 -33 -65 -78 155 c-43 85 -86 169
-94 185 -15 29 -17 30 -99 33 -45 2 -81 -1 -79 -6z"/>
<path d="M10780 7650 l0 -280 75 0 75 0 0 280 0 280 -75 0 -75 0 0 -280z"/>
<path d="M5207 6963 c-4 -3 -7 -181 -7 -395 l0 -388 80 0 80 0 0 395 0 395
-73 0 c-41 0 -77 -3 -80 -7z"/>
<path d="M6883 6902 l-73 -36 0 -58 0 -58 -55 0 -55 0 0 -65 0 -65 55 0 55 0
0 -127 c1 -143 11 -202 42 -246 36 -50 155 -88 227 -72 31 7 31 7 31 73 l0 67
-49 -3 c-89 -7 -91 -3 -91 163 l0 145 70 0 70 0 0 65 0 65 -70 0 -70 0 0 95
c0 52 -3 95 -7 94 -5 0 -41 -17 -80 -37z"/>
<path d="M8035 6902 l-70 -37 -3 -57 -3 -58 -54 0 -55 0 0 -65 0 -65 54 0 54
0 4 -152 c5 -174 19 -219 82 -257 43 -27 134 -45 180 -37 l36 7 0 67 0 67 -49
-3 c-89 -7 -91 -3 -91 163 l0 145 70 0 70 0 0 65 0 65 -70 0 -70 0 0 95 c0 52
-3 95 -7 95 -5 0 -39 -17 -78 -38z"/>
<path d="M9195 6902 l-70 -37 -3 -57 -3 -58 -54 0 -55 0 0 -65 0 -65 54 0 53
0 5 -154 c5 -144 7 -158 32 -200 39 -67 149 -109 241 -92 l36 7 -3 67 -3 66
-52 -3 c-92 -5 -93 -3 -93 164 l0 144 73 3 72 3 0 60 0 60 -72 3 -73 3 0 94
c0 52 -3 95 -7 95 -5 0 -39 -17 -78 -38z"/>
<path d="M5737 6745 c-22 -7 -49 -23 -61 -34 -30 -28 -36 -26 -36 9 l0 30 -75
0 -75 0 0 -280 0 -280 74 0 74 0 4 175 3 175 37 36 c31 32 44 38 90 41 63 5
94 -9 125 -56 22 -32 23 -44 23 -202 l0 -169 78 0 77 0 -3 177 c-3 212 -14
256 -77 319 -67 66 -172 90 -258 59z"/>
<path d="M6308 6746 c-86 -31 -128 -82 -128 -155 0 -80 50 -124 195 -171 102
-33 125 -47 125 -74 0 -63 -149 -59 -194 5 l-16 23 -67 -18 c-38 -10 -70 -19
-72 -21 -2 -2 7 -20 19 -40 47 -76 132 -116 248 -117 141 -1 238 78 229 184
-7 87 -64 136 -205 180 -84 25 -122 45 -122 62 0 16 42 36 76 36 31 0 80 -24
87 -44 5 -11 17 -9 71 12 36 14 66 32 66 38 0 25 -70 81 -121 97 -61 20 -140
21 -191 3z"/>
<path d="M7163 6738 c3 -7 59 -131 126 -275 l120 -262 -54 -116 c-30 -64 -55
-118 -55 -121 0 -2 37 -4 83 -4 l82 0 62 138 c34 75 112 245 172 377 61 131
114 247 117 257 5 17 -1 19 -76 16 l-82 -3 -85 -193 -86 -194 -54 129 c-29 70
-66 157 -81 193 l-28 65 -83 3 c-65 2 -82 0 -78 -10z"/>
<path d="M8350 6577 c0 -215 11 -259 78 -326 52 -52 101 -71 181 -71 57 0 114
20 148 52 l23 21 0 -31 0 -32 75 0 75 0 0 280 0 280 -74 0 -75 0 -3 -181 -3
-181 -36 -33 c-67 -61 -161 -53 -213 18 -19 26 -21 45 -24 203 l-3 174 -75 0
-74 0 0 -173z"/>
<path d="M11129 5771 c-20 -20 -29 -39 -29 -61 0 -37 47 -90 80 -90 68 0 115
72 85 130 -29 56 -91 65 -136 21z"/>
<path d="M11399 5771 c-20 -20 -29 -39 -29 -61 0 -37 47 -90 80 -90 68 0 115
72 85 130 -29 56 -91 65 -136 21z"/>
<path d="M5207 5783 c-4 -3 -7 -181 -7 -395 l0 -388 275 0 275 0 0 70 0 70
-192 2 -193 3 -3 323 -2 322 -73 0 c-41 0 -77 -3 -80 -7z"/>
<path d="M8093 5722 l-73 -36 0 -58 0 -58 -55 0 -55 0 0 -65 0 -65 54 0 54 0
4 -157 c4 -175 12 -202 71 -247 35 -27 100 -45 159 -46 64 0 68 5 68 79 l0 66
-62 0 c-83 0 -88 10 -88 178 l0 127 75 0 75 0 0 65 0 65 -75 0 -74 0 -3 94 -3
93 -72 -35z"/>
<path d="M6006 5564 c-94 -29 -160 -87 -199 -173 -15 -36 -18 -60 -15 -122 4
-65 9 -84 37 -127 60 -94 152 -142 271 -142 179 0 311 119 312 283 1 135 -82
240 -222 281 -65 20 -120 19 -184 0z m157 -138 c57 -24 90 -69 95 -128 3 -43
0 -59 -20 -87 -67 -100 -209 -100 -275 -1 -81 119 62 275 200 216z"/>
<path d="M6715 5570 c-219 -54 -304 -288 -170 -463 23 -30 55 -56 96 -76 53
-27 73 -31 138 -31 77 0 143 21 183 57 46 42 31 -56 -16 -103 -73 -73 -203
-70 -300 8 l-39 32 -63 -33 -63 -33 21 -28 c49 -67 162 -123 270 -136 110 -13
239 34 304 110 58 68 64 106 64 418 l0 278 -75 0 -75 0 0 -35 0 -35 -39 26
c-71 47 -160 63 -236 44z m196 -157 c52 -30 74 -68 74 -126 0 -60 -21 -95 -75
-125 -81 -46 -169 -36 -231 27 -52 51 -60 100 -28 160 34 64 94 94 171 88 32
-3 72 -13 89 -24z"/>
<path d="M7456 5564 c-94 -29 -160 -87 -199 -173 -15 -35 -18 -59 -15 -120 5
-89 22 -126 84 -187 118 -114 335 -113 451 3 61 61 83 112 83 198 0 138 -79
237 -220 279 -65 20 -120 19 -184 0z m183 -151 c127 -95 69 -277 -89 -277
-146 0 -213 163 -107 262 48 45 145 52 196 15z"/>
<path d="M8599 5564 c-102 -31 -184 -110 -210 -202 -17 -61 -6 -153 24 -205
58 -98 149 -149 278 -155 99 -5 159 10 233 60 77 51 77 62 -3 93 l-68 27 -44
-23 c-50 -26 -138 -31 -179 -9 -30 15 -80 60 -80 72 0 4 101 8 224 8 256 0
245 -4 231 88 -17 114 -99 207 -212 242 -75 23 -129 24 -194 4z m155 -138 c32
-13 86 -63 86 -78 0 -5 -65 -8 -145 -8 -162 0 -174 6 -110 57 55 44 110 54
169 29z"/>
<path d="M9351 5565 c-24 -7 -56 -26 -72 -41 l-29 -28 0 37 0 37 -75 0 -75 0
0 -280 0 -280 75 0 75 0 0 158 c0 173 8 206 63 246 39 29 135 30 166 2 12 -11
23 -17 25 -15 4 5 36 135 36 147 0 12 -78 32 -117 31 -15 0 -48 -6 -72 -14z"/>
<path d="M9786 5563 c-175 -53 -261 -236 -186 -397 46 -97 140 -158 253 -164
79 -5 143 10 189 45 l33 24 3 -30 3 -31 80 0 79 0 0 280 0 280 -80 0 -80 0 0
-35 0 -34 -36 24 c-45 30 -125 55 -173 54 -20 0 -58 -7 -85 -16z m199 -142
c60 -28 87 -62 93 -119 8 -85 -39 -141 -134 -163 -126 -29 -250 78 -214 185
13 40 67 94 106 106 48 14 107 11 149 -9z"/>
<path d="M10625 5563 c-28 -10 -65 -29 -83 -41 l-32 -23 0 35 0 36 -75 0 -75
0 0 -395 0 -395 75 0 75 0 0 145 c0 134 6 166 26 134 3 -6 30 -22 58 -35 40
-18 68 -24 127 -24 124 0 214 56 275 170 14 26 19 56 19 115 0 67 -5 88 -27
131 -67 128 -231 194 -363 147z m170 -153 c39 -24 75 -84 75 -125 0 -86 -113
-168 -209 -150 -176 32 -206 231 -44 291 51 19 134 11 178 -16z"/>
<path d="M11110 5290 l0 -280 75 0 75 0 0 280 0 280 -75 0 -75 0 0 -280z"/>
<path d="M11380 5290 l0 -280 75 0 75 0 0 280 0 280 -75 0 -75 0 0 -280z"/>
</g>
</svg>
