<svg aria-hidden="true" version="1.1" xmlns="http://www.w3.org/2000/svg" xmlns:xlink="http://www.w3.org/1999/xlink">
<defs>
<symbol id="icon-VF_Logo_hoch_rot_2" viewBox="0 0 71 32">
<path d="M30.706 8.893h-6.483v-6.329h-16.706v10.057h-4.453v16.73h16.718v-3.74h10.936v-16.718zM7.837 2.885h16.065v5.996h-9.903v3.74h-6.163v-9.737zM14.32 19.295h5.13v5.996h-5.13v-5.996zM14.32 18.963v-6.020h5.13v6.020h-5.13zM7.837 12.954h6.163v6.020h-6.163v-6.020zM14.32 12.622v-3.408h9.582v9.748h-4.12v-6.341h-5.462zM19.449 29.032h-16.065v-16.077h4.12v6.341h6.483v6.329h5.45v3.408zM30.385 25.291h-10.615v-5.996h4.453v-10.081h6.163v16.077z"></path>
<path d="M67.622 23.012h-3.396v0.332h1.52v5.996h0.368v-5.996h1.52v-0.332zM60.96 29.435c0.356 0 0.677-0.095 0.974-0.297 0.297-0.19 0.534-0.463 0.701-0.796s0.261-0.701 0.261-1.104v-4.227h-0.368v4.191c0 0.344-0.071 0.665-0.214 0.95s-0.332 0.522-0.57 0.689c-0.237 0.166-0.499 0.249-0.784 0.249s-0.546-0.083-0.784-0.249c-0.237-0.166-0.427-0.404-0.558-0.689-0.142-0.285-0.202-0.606-0.202-0.95v-4.191h-0.368v4.227c0 0.404 0.083 0.772 0.261 1.104 0.166 0.332 0.404 0.594 0.701 0.796 0.273 0.202 0.594 0.297 0.95 0.297zM57.695 23.012h-3.396v0.332h1.52v5.996h0.368v-5.996h1.52v-0.332zM52.53 29.352h0.368v-6.329h-0.368v6.329zM51.117 23.012h-3.396v0.332h1.52v5.996h0.368v-5.996h1.52v-0.332zM45.121 29.435c0.285 0 0.558-0.059 0.819-0.19 0.261-0.119 0.463-0.309 0.629-0.558s0.237-0.558 0.237-0.902c0-0.332-0.071-0.606-0.202-0.831s-0.297-0.404-0.499-0.534c-0.202-0.131-0.451-0.273-0.772-0.439-0.297-0.154-0.522-0.285-0.701-0.392-0.166-0.107-0.321-0.261-0.427-0.439-0.119-0.178-0.178-0.404-0.178-0.653 0-0.392 0.107-0.689 0.332-0.902s0.475-0.321 0.772-0.321c0.226 0 0.439 0.059 0.629 0.178s0.344 0.273 0.463 0.463l0.273-0.226c-0.142-0.214-0.344-0.392-0.582-0.534-0.249-0.142-0.511-0.214-0.784-0.214-0.249 0-0.487 0.059-0.712 0.178s-0.404 0.285-0.558 0.522c-0.142 0.237-0.214 0.522-0.214 0.867 0 0.332 0.071 0.606 0.202 0.831s0.297 0.404 0.487 0.534c0.19 0.131 0.451 0.285 0.772 0.439 0.297 0.142 0.522 0.273 0.701 0.392 0.166 0.107 0.321 0.261 0.439 0.439s0.178 0.404 0.178 0.665c0 0.261-0.059 0.499-0.178 0.689s-0.273 0.344-0.475 0.439c-0.202 0.107-0.416 0.154-0.641 0.154-0.332 0-0.629-0.095-0.891-0.297s-0.439-0.439-0.534-0.748l-0.309 0.166c0.119 0.344 0.344 0.641 0.653 0.879 0.321 0.226 0.677 0.344 1.069 0.344zM41.523 23.023v5.593l-3.515-5.593h-0.309v6.329h0.368v-5.593l3.515 5.593h0.309v-6.329h-0.368zM35.491 29.352h0.368v-6.329h-0.368v6.329z"></path>
<path d="M60.948 19.224h2.422v-0.332h-2.054v-5.996h-0.368v6.329zM59.951 19.224l-2.897-3.443 2.767-2.885h-0.487l-2.636 2.79v-2.79h-0.368v6.329h0.368v-3.313l2.743 3.313h0.511zM54.133 12.895v5.593l-3.515-5.593h-0.309v6.329h0.368v-5.593l3.515 5.593h0.309v-6.329h-0.368zM45.406 17.478l1.354-4.132 1.365 4.132h-2.719zM48.706 19.224h0.416l-2.149-6.329h-0.416l-2.137 6.329h0.404l0.463-1.413h2.945l0.475 1.413zM40.122 15.958v-2.731h1.567c0.214 0 0.427 0.059 0.617 0.178s0.344 0.285 0.451 0.499c0.107 0.214 0.166 0.439 0.166 0.689s-0.059 0.475-0.166 0.689c-0.107 0.214-0.261 0.38-0.451 0.499s-0.392 0.178-0.617 0.178h-1.567zM41.879 16.267c0.261-0.024 0.499-0.107 0.712-0.261s0.38-0.356 0.511-0.606 0.19-0.511 0.19-0.807c0-0.309-0.071-0.594-0.214-0.855s-0.332-0.463-0.582-0.617c-0.237-0.154-0.511-0.226-0.796-0.226h-1.935v6.329h0.368v-2.933h1.377l1.734 2.933h0.416l-1.781-2.957zM38.578 13.239v-0.332h-3.075v6.329h0.368v-2.992h2.375v-0.332h-2.375v-2.66h2.707z"></path>
<path d="M59.072 5.83v-2.731h1.567c0.214 0 0.427 0.059 0.617 0.178s0.344 0.285 0.451 0.499c0.107 0.214 0.166 0.439 0.166 0.689s-0.059 0.475-0.166 0.689c-0.107 0.214-0.261 0.38-0.451 0.499s-0.392 0.178-0.617 0.178h-1.567zM60.818 6.151c0.261-0.024 0.499-0.107 0.712-0.261s0.38-0.356 0.511-0.606c0.131-0.249 0.19-0.511 0.19-0.807 0-0.309-0.071-0.594-0.214-0.855s-0.332-0.463-0.582-0.617c-0.237-0.154-0.511-0.226-0.796-0.226h-1.935v6.329h0.368v-2.945h1.377l1.734 2.933h0.416l-1.781-2.945zM53.931 8.834c-0.487 0-0.926-0.131-1.33-0.392s-0.724-0.606-0.962-1.045c-0.237-0.439-0.356-0.926-0.356-1.46s0.119-1.009 0.356-1.46c0.237-0.439 0.558-0.796 0.962-1.045 0.404-0.261 0.843-0.392 1.33-0.392s0.926 0.131 1.33 0.392c0.404 0.261 0.724 0.606 0.962 1.045s0.356 0.926 0.356 1.46c0 0.534-0.119 1.009-0.356 1.46-0.237 0.439-0.558 0.796-0.962 1.045-0.404 0.261-0.843 0.392-1.33 0.392zM53.931 9.178c0.546 0 1.045-0.143 1.508-0.439 0.463-0.285 0.831-0.689 1.092-1.187s0.404-1.045 0.404-1.639-0.131-1.14-0.404-1.639c-0.273-0.499-0.629-0.891-1.092-1.187-0.463-0.285-0.962-0.439-1.508-0.439s-1.045 0.143-1.508 0.439c-0.463 0.285-0.819 0.689-1.092 1.187s-0.404 1.045-0.404 1.639 0.131 1.14 0.404 1.639c0.273 0.499 0.629 0.891 1.092 1.187s0.962 0.439 1.508 0.439zM50.096 2.755h-3.396v0.332h1.508v5.996h0.368v-5.984h1.52v-0.344zM46.13 9.095l-2.897-3.443 2.767-2.885h-0.487l-2.636 2.79v-2.79h-0.368v6.329h0.368v-3.301l2.743 3.313h0.511zM40.324 9.095h0.368v-6.329h-0.368v6.329zM38.934 2.767l-1.935 5.83-1.935-5.83h-0.404l2.149 6.329h0.392l2.149-6.329h-0.416z"></path>
</symbol>
<symbol id="icon-logo_horyzonty" viewBox="0 0 121 32">
<path d="M26.35 0.8c-8.85 1.95-16.75 6-23 11.7-3.050 2.85-3.35 3.25-2.65 3.9 0.7 0.7 1.1 0.5 3.9-2.2 14.1-13.5 35.55-16.7 53.15-7.95 2.5 1.2 3.95 1.8 3.25 1.25-2.2-1.7-8.25-4.4-12.8-5.8-5.7-1.65-16.45-2.15-21.85-0.9z"></path>
<path d="M31.7 4.3c-4.7 1.7-8.5 6.75-9.050 12.1-0.3 2.75-0.3 2.75 0.9 2.4 5.15-1.45 7-1.8 9.55-1.8 3.35 0 8.3 0.95 7.45 1.45-0.3 0.2 0.2 0.35 1.1 0.35 1.75 0 6.7 2.7 6.5 3.55-0.2 0.9 2.050 0.3 2.4-0.65 0.7-1.7 0.45-6.45-0.4-9-1.1-3.3-5.050-7.25-8.35-8.35-3-1-7.3-1.050-10.1-0.050zM42.6 9.35c1.1 1 1.15 2.55 0.050 3.75-1.1 1.25-2.95 1.15-3.85-0.2-1-1.45-1-2.35 0.050-3.5 1-1.1 2.55-1.15 3.75-0.050z"></path>
<path d="M27 18.5c0 0.3 0.35 0.5 0.75 0.5s0.75-0.1 0.75-0.2c0-0.1-0.35-0.3-0.75-0.5-0.4-0.15-0.75-0.050-0.75 0.2z"></path>
<path d="M38 18.5c0 0.25 0.25 0.5 0.55 0.5 0.25 0 0.35-0.25 0.2-0.5-0.15-0.3-0.4-0.5-0.55-0.5-0.1 0-0.2 0.2-0.2 0.5z"></path>
<path d="M23.1 20.25c-0.050 1.5 1.2 4.5 1.8 4.4 0.3-0.1 0.45 0.15 0.3 0.5-0.3 0.9 3.85 4.7 6.2 5.75 2.8 1.2 8.3 1.050 11.1-0.35 1.25-0.6 2.7-1.45 3.25-1.95 1.5-1.25 3.95-4.6 3.6-4.9-0.15-0.15-0.55 0.25-0.85 0.9-0.95 1.8-3.1 3.9-3.65 3.55-0.3-0.15-0.35-0.050-0.15 0.25 0.2 0.35 0.050 0.65-0.3 0.65-0.35 0.050-0.95 0.1-1.3 0.15-0.35 0-0.85 0.35-1.1 0.75-0.25 0.45-1.35 0.75-3.1 0.8-1.45 0-2.9 0.2-3.2 0.4-0.3 0.15-0.7 0.2-0.9 0-0.15-0.15-0.9-0.4-1.65-0.45-0.75-0.1-1.45-0.4-1.55-0.7-0.1-0.25-0.4-0.4-0.65-0.25-0.25 0.2-0.7 0.050-1.050-0.2-0.35-0.3-1.4-1.1-2.25-1.85-1.050-0.8-1.65-1.75-1.65-2.5 0-0.7-0.3-1.2-0.7-1.2-0.8 0-1.45-1.35-1-2.050 0.15-0.25 0.050-0.45-0.25-0.45-0.25 0-0.6-0.5-0.7-1.15-0.2-0.9-0.2-0.95-0.25-0.1z"></path>
<path d="M57.5 23.75c0 1.85 0.2 3.25 0.5 3.25s0.5-0.7 0.5-1.5c0-1.35 0.15-1.5 1.5-1.5s1.5 0.15 1.5 1.5c0 0.8 0.25 1.5 0.5 1.5 0.3 0 0.5-1.4 0.5-3.25s-0.2-3.25-0.5-3.25c-0.25 0-0.5 0.55-0.5 1.25 0 1.050-0.25 1.25-1.5 1.25s-1.5-0.2-1.5-1.25c0-0.7-0.2-1.25-0.5-1.25s-0.5 1.4-0.5 3.25z"></path>
<path d="M66.1 21.35c-1.55 1.35-1.75 2.8-0.6 4.25 1.35 1.8 3.3 2.050 4.85 0.7 1.65-1.4 1.7-3.65 0.15-4.9-1.4-1.15-3.1-1.15-4.4-0.050zM70.4 22.4c0.8 1.1 0.75 2.1-0.25 3.2-1.6 1.75-4.65 0.5-4.65-1.9 0-2.35 3.35-3.25 4.9-1.3z"></path>
<path d="M74.35 20.85c-0.55 0.5-0.4 6.15 0.15 6.15 0.3 0 0.5-0.6 0.5-1.4v-1.35l1.25 1.5c1.25 1.55 1.7 1.45 0.65-0.25-0.5-0.75-0.45-1.1 0.25-1.9 1.050-1.15 1.050-1.35 0.050-2.3-0.8-0.8-2.3-1.050-2.85-0.45zM77 22.5c0 0.65-0.35 1-1 1s-1-0.35-1-1c0-0.65 0.35-1 1-1s1 0.35 1 1z"></path>
<path d="M80.45 22.2c0.6 0.9 1.050 2.35 1.050 3.25 0 0.85 0.25 1.55 0.5 1.55 0.3 0 0.5-0.7 0.5-1.5 0-0.85 0.35-2.25 0.8-3.050 0.4-0.85 0.65-1.65 0.5-1.8s-0.55 0.3-0.85 1.050c-0.75 1.6-1.1 1.65-1.95 0.050-0.35-0.7-0.85-1.25-1.15-1.25-0.25 0 0.050 0.75 0.6 1.7z"></path>
<path d="M86.5 21c0 0.25 0.55 0.5 1.25 0.5 1.55 0 1.55-0.050 0 3l-1.25 2.5 2.1-0.050c1.5-0.1 1.75-0.15 0.8-0.3-1.7-0.25-1.75-0.85-0.15-3.4 0.65-1.1 1.25-2.15 1.25-2.4 0-0.2-0.9-0.35-2-0.35s-2 0.2-2 0.5z"></path>
<path d="M93.55 21.8c-1.2 1.55-1.25 1.75-0.45 3.45 1.45 3.2 6.4 2.050 6.4-1.55 0-3.1-4-4.4-5.95-1.9zM98.4 22.4c0.8 1.050 0.75 1.65-0.2 3-1.4 2-4.7 0.85-4.7-1.7 0-2.35 3.35-3.25 4.9-1.3z"></path>
<path d="M106.7 21.25c-0.2 0.4-0.2 1.45-0.1 2.25 0.15 0.85 0.1 1.5-0.050 1.5s-1.25-0.95-2.4-2.1l-2.15-2.1 0.1 3.2c0.050 2.95 0.1 3.050 0.25 0.8l0.2-2.45 4.95 4.85v-3.35c0-3.3-0.25-4.1-0.8-2.6z"></path>
<path d="M109.5 21c0 0.25 0.35 0.5 0.75 0.5 0.6 0 0.75 0.65 0.75 2.75 0 1.5 0.25 2.75 0.5 2.75 0.3 0 0.5-1.25 0.5-2.75 0-2.1 0.15-2.75 0.75-2.75 0.4 0 0.75-0.25 0.75-0.5 0-0.3-0.9-0.5-2-0.5s-2 0.2-2 0.5z"></path>
<path d="M115.5 20.6c0 0.2 0.45 1.1 1 2s1 2.3 1.050 3.15c0.050 1.45 0.050 1.45 0.4-0.25 0.2-0.95 0.75-2.4 1.25-3.15s0.8-1.5 0.65-1.65c-0.15-0.15-0.65 0.3-1.15 1.050l-0.85 1.3-1.15-1.4c-0.65-0.75-1.15-1.25-1.2-1.050z"></path>
</symbol>
<symbol id="icon-logo_profeto" viewBox="0 0 116 32">
<path d="M11.897 1.997c-1.915 1.942-2.38 3.118-1.778 4.595 0.656 1.532 2.544 1.86 3.556 0.574 0.52-0.629 0.574-0.93 0.41-1.969-0.301-1.723-0.301-3.884-0.027-4.458 0.465-0.985-0.465-0.438-2.161 1.258z"></path>
<path d="M68.403 5.333c-0.656 0.219-1.614 0.766-2.106 1.258-1.313 1.258-1.75 2.844-1.75 6.154v2.817l-1.012 0.082c-0.848 0.055-1.067 0.191-1.121 0.738-0.109 0.766 0.328 1.121 1.395 1.121h0.738v4.267c0 4.075-0.027 4.267-0.574 4.403-0.41 0.109-0.52 0.328-0.465 0.875 0.082 0.629 0.219 0.711 1.285 0.793 2.844 0.219 3.036-0.191 3.036-5.935 0-2.38 0.055-4.376 0.109-4.431 0.082-0.055 0.684-0.082 1.34-0.027 1.203 0.109 1.231 0.137 1.532 1.231 0.793 3.118 3.145 4.841 6.564 4.841 2.024 0 3.227-0.383 4.185-1.285 0.985-0.93 0.957-1.477-0.055-2.079-0.629-0.383-0.93-0.41-1.368-0.191-0.301 0.164-0.547 0.41-0.547 0.574 0 0.137-0.301 0.574-0.684 0.93-1.532 1.559-4.075 0.492-4.759-1.942s-0.93-2.297 4.485-2.297h4.786v-0.93c0-3.009-2.626-5.142-6.263-5.115-3.2 0-5.060 0.985-5.935 3.173l-0.52 1.231h-2.872v-3.091c0.027-4.403 0.957-6.209 3.255-6.209 0.766 0 1.149 0.219 2.051 1.231 1.258 1.368 1.641 1.45 2.598 0.711 0.82-0.629 0.656-1.34-0.492-2.133-1.778-1.203-4.485-1.504-6.838-0.766zM79.070 13.374c0.465 0.465 0.793 1.094 0.793 1.504v0.711h-2.872c-2.981 0-3.145-0.055-2.571-1.176 0.711-1.34 1.395-1.832 2.653-1.832 0.957 0 1.34 0.164 1.997 0.793z"></path>
<path d="M85.415 5.689c-1.395 0.684-1.778 1.203-1.176 1.559 0.164 0.082 0.273 0.903 0.273 1.778v1.614l-1.149 0.082c-1.039 0.082-1.176 0.164-1.176 0.766s0.137 0.684 1.176 0.766l1.149 0.082v4.978c0 6.154 0.027 6.209 2.626 6.209 1.696 0 1.75-0.027 1.75-0.711 0-0.465-0.164-0.766-0.547-0.848-0.52-0.137-0.547-0.383-0.547-4.896v-4.732l1.313-0.082c1.176-0.082 1.285-0.137 1.285-0.766 0-0.602-0.137-0.711-1.231-0.82l-1.231-0.137-0.137-2.735c-0.164-3.173-0.219-3.227-2.379-2.106z"></path>
<path d="M3.337 10.475c-1.969 0.629-3.583 3.473-3.227 5.744 0.52 3.2 4.568 8.342 9.573 12.089 2.735 2.079 3.173 2.188 4.321 1.285 2.27-1.805 6.591-7.685 7.467-10.174 0.93-2.653 0.301-5.962-1.45-7.439-2.133-1.778-4.786-1.997-7.603-0.629-1.368 0.684-1.614 0.711-2.133 0.383-1.832-1.176-3.036-1.614-4.513-1.586-0.848 0.027-1.942 0.164-2.434 0.328z"></path>
<path d="M40.424 11.077c-1.45 0.766-1.778 1.149-1.34 1.586 0.191 0.191 0.301 1.832 0.301 4.732 0 4.185-0.027 4.431-0.547 4.568-0.383 0.082-0.547 0.383-0.547 0.848v0.711h5.47v-0.711c0-0.465-0.164-0.766-0.547-0.848-0.52-0.137-0.547-0.383-0.547-3.556 0-3.583 0.273-4.704 1.34-5.279 0.875-0.438 2.352-0.328 3.118 0.274 0.93 0.738 1.395 0.684 2.106-0.191 0.793-1.012 0.602-1.532-0.684-1.942-1.313-0.438-3.009-0.274-4.65 0.465l-1.203 0.52-0.082-0.848c-0.109-1.094-0.574-1.176-2.188-0.328z"></path>
<path d="M26.475 11.624c-1.586 0.848-1.668 0.985-1.176 1.942 0.328 0.656 0.41 2.215 0.41 8.67v7.85l-0.684 0.273c-0.738 0.273-0.875 0.793-0.356 1.313 0.465 0.465 2.735 0.41 3.446-0.109 0.574-0.383 0.602-0.602 0.602-4.485v-4.075l0.875 0.273c1.778 0.492 4.376 0.301 5.908-0.465 2.133-1.067 2.926-2.544 2.926-5.443 0-1.75-0.137-2.434-0.629-3.337-1.176-2.27-3.747-3.227-7.275-2.762-1.039 0.137-1.75 0.109-1.915-0.055-0.383-0.383-0.684-0.328-2.133 0.41zM33.86 13.21c1.969 2.106 1.832 7.029-0.246 8.506-0.821 0.574-2.407 0.547-3.145-0.055-2.133-1.696-2.133-7.193 0-8.67 0.875-0.629 2.708-0.52 3.391 0.219z"></path>
<path d="M53.853 11.214c-3.282 0.547-4.896 2.598-4.896 6.209 0 2.188 0.629 3.747 1.887 4.814 1.094 0.93 2.434 1.285 4.704 1.285 2.598 0 4.458-0.985 5.443-2.872 0.93-1.832 0.957-4.896 0.055-6.619-0.711-1.368-2.215-2.434-3.747-2.68-0.602-0.082-1.34-0.219-1.641-0.246-0.301-0.055-1.121 0-1.805 0.109zM57.108 13.21c2.626 2.79 1.422 8.944-1.723 8.944-1.368 0-1.942-0.383-2.653-1.723-1.149-2.243-0.629-6.345 0.985-7.439 0.875-0.629 2.708-0.52 3.391 0.219z"></path>
<path d="M94.605 11.241c-3.337 0.52-5.032 2.653-5.005 6.291 0.027 2.708 1.641 5.087 3.856 5.689 1.668 0.465 4.458 0.356 5.744-0.246 1.094-0.492 1.149-0.574 0.903-1.231-0.711-1.832-0.082-3.528 1.45-3.911 0.492-0.137 0.903-0.438 0.957-0.684 0.191-0.957-0.793-3.473-1.696-4.376-1.258-1.285-3.856-1.915-6.209-1.532zM97.915 13.347c1.258 1.285 1.723 3.856 1.067 6.181-0.711 2.571-3.309 3.501-4.896 1.805-1.778-1.887-1.641-6.756 0.191-8.205 1.067-0.821 2.68-0.738 3.638 0.219z"></path>
<path d="M104.424 16.328c-0.547 0.602-0.656 1.586-0.191 1.887 0.492 0.301 0.848-0.328 0.738-1.395-0.082-0.985-0.082-1.012-0.547-0.492z"></path>
<path d="M101.962 19.036c-0.246 0.082-0.574 0.492-0.766 0.93-0.273 0.684-0.246 0.985 0.246 2.024 0.574 1.176 2.735 3.446 3.309 3.446 0.41 0 2.161-2.462 2.407-3.419 0.273-0.93-0.027-2.297-0.547-2.653-0.191-0.109-0.957-0.191-1.723-0.164-0.738 0.027-1.614-0.027-1.915-0.109-0.301-0.109-0.738-0.109-1.012-0.055z"></path>
<path d="M74.94 25.901c-0.328 0.082-0.41 0.574-0.41 2.407v2.325h0.766c0.684 0 0.738-0.082 0.602-0.738-0.164-0.738-0.164-0.738 0.246-0.246 0.246 0.301 0.438 0.629 0.438 0.766 0 0.109 0.738 0.219 1.668 0.219 1.422 0 1.641-0.055 1.504-0.438-0.082-0.246-0.164-1.285-0.164-2.352 0-1.778-0.027-1.887-0.602-1.805-0.547 0.082-0.574 0.219-0.52 2.188 0.055 2.27-0.164 2.598-0.93 1.395-0.383-0.574-0.41-0.82-0.164-1.231 0.41-0.656 0.383-0.766-0.137-0.766-0.246 0-0.656 0.273-0.957 0.602l-0.492 0.629-0.027-1.422c0-1.477-0.137-1.696-0.82-1.532z"></path>
<path d="M71.904 27.843c-0.711 0.602-0.574 1.395 0.301 1.614 0.301 0.082 0.547 0.273 0.547 0.41 0 0.164-0.301 0.191-0.684 0.109-0.903-0.219-0.903 0.328 0 0.656 1.039 0.383 2.106-0.164 1.997-1.067-0.055-0.465-0.273-0.738-0.629-0.793-0.301-0.055-0.656-0.246-0.82-0.383-0.191-0.191 0-0.246 0.629-0.137 1.039 0.219 1.176-0.246 0.164-0.629-0.875-0.356-0.766-0.356-1.504 0.219z"></path>
<path d="M80.602 28.116c-1.368 1.504 0.711 3.583 2.297 2.27l0.656-0.547-1.012 0.164c-1.285 0.191-1.368-0.246-0.137-0.602 0.684-0.219 0.875-0.41 0.875-0.957 0-0.602-0.137-0.684-1.121-0.766-0.793-0.055-1.231 0.055-1.559 0.438zM82.27 28.499c-0.082 0.191-0.328 0.383-0.574 0.438-0.328 0.055-0.41-0.027-0.301-0.328 0.191-0.52 1.039-0.602 0.875-0.109z"></path>
<path d="M84.075 27.87c-0.137 0.082-0.246 0.985-0.246 2.024 0 1.504 0.082 1.86 0.465 1.997 0.656 0.191 1.039-0.082 1.039-0.711 0-0.356 0.137-0.465 0.41-0.383 0.656 0.273 1.778-0.629 1.778-1.422 0-1.34-0.438-1.75-1.887-1.723-0.738 0.027-1.45 0.109-1.559 0.219zM86.318 28.827c0.191 0.793-0.027 1.258-0.602 1.258-0.246 0-0.383-0.301-0.383-0.957 0-1.121 0.711-1.34 0.985-0.301z"></path>
<path d="M89.436 28.062c0 0.301 0.164 0.383 0.547 0.246 0.656-0.219 0.711 0.191 0.109 0.684-0.738 0.629-1.039 1.395-0.629 1.668 0.547 0.356 1.997 0.301 2.379-0.082 0.52-0.52 0.383-0.793-0.356-0.602-0.848 0.219-0.848 0.164 0-0.985 0.356-0.492 0.602-1.012 0.52-1.121-0.082-0.137-0.684-0.246-1.368-0.246-0.903 0-1.203 0.109-1.203 0.438z"></path>
<path d="M94.25 28.062c-0.602 0.574-0.438 0.985 0.492 1.45 0.547 0.246 0.684 0.438 0.465 0.656-0.191 0.191-0.41 0.164-0.711-0.082-0.219-0.191-0.52-0.273-0.629-0.164-0.246 0.273 0.738 0.985 1.34 0.985 0.246 0 0.738-0.219 1.067-0.492 0.711-0.574 0.492-1.368-0.438-1.586-0.356-0.082-0.656-0.301-0.656-0.438 0-0.164 0.301-0.191 0.711-0.109 0.52 0.137 0.684 0.082 0.602-0.164-0.191-0.547-1.723-0.602-2.243-0.055z"></path>
<path d="M97.586 28.089c-0.766 0.903-0.793 1.45-0.082 2.161 0.82 0.82 1.805 0.848 2.489 0.055 0.52-0.574 0.52-0.574-0.027-0.383-0.848 0.356-1.285 0.328-1.422-0.055-0.082-0.191 0.109-0.328 0.41-0.328 0.875 0 1.477-0.738 1.149-1.395-0.383-0.684-1.942-0.711-2.516-0.055zM99.145 28.417c0.082 0.164-0.109 0.41-0.41 0.574-0.438 0.219-0.547 0.219-0.547-0.082 0-0.684 0.629-0.985 0.957-0.492z"></path>
<path d="M100.896 27.843c-0.027 0.109-0.027 0.793-0.027 1.559 0 1.258 0.055 1.368 0.629 1.368 0.492 0 0.629-0.137 0.574-0.52-0.164-0.848 0.191-1.805 0.656-1.805 0.246 0 0.383-0.137 0.328-0.328-0.137-0.356-2.106-0.602-2.161-0.273z"></path>
<path d="M103.932 28.171c-0.301 0.301-0.547 0.793-0.547 1.094 0 1.313 1.942 2.133 2.872 1.203 0.574-0.574 0.356-0.793-0.383-0.383-0.766 0.41-1.121 0.137-1.121-0.82 0-0.93 0.41-1.285 0.957-0.82 0.547 0.438 1.094 0.082 0.656-0.438-0.465-0.547-1.805-0.465-2.434 0.164z"></path>
<path d="M107.35 28.308c-0.82 0.793-0.848 1.34-0.137 2.051 0.602 0.602 1.887 0.738 2.407 0.219 0.547-0.547 0.356-0.766-0.356-0.438-0.492 0.219-0.793 0.219-0.985 0.027-0.219-0.219 0-0.383 0.684-0.629 1.012-0.328 1.285-0.957 0.656-1.586-0.52-0.52-1.559-0.383-2.27 0.356zM108.855 28.554c0 0.219-0.191 0.438-0.41 0.547-0.41 0.137-0.574-0.383-0.219-0.738 0.301-0.328 0.629-0.219 0.629 0.191z"></path>
<path d="M110.769 27.843c-0.137 0.055-0.273 0.766-0.273 1.586 0 1.395 0.027 1.477 0.684 1.477 0.629 0 0.684-0.109 0.684-1.231 0-0.957 0.109-1.231 0.438-1.231 0.383 0 0.438 0.219 0.328 1.231-0.137 1.149-0.109 1.231 0.492 1.231s0.656-0.109 0.656-1.231c0-0.93 0.109-1.231 0.438-1.231s0.41 0.246 0.328 1.149c-0.055 1.094-0.027 1.176 0.602 1.176s0.656-0.082 0.602-1.231c-0.055-0.684-0.219-1.368-0.356-1.504-0.246-0.246-3.966-0.41-4.622-0.191z"></path>
</symbol>
<symbol id="icon-logo_pallotti" viewBox="0 0 62 32">
<path d="M3.561 0.546c0.244 1.823 0.311 2.478 0.42 3.822 0.227 2.805 0.227 3.024 0.067 3.024-0.991 0.008-2.688 0.235-3.519 0.479l-0.445 0.118v2.721l1.529-0.025c0.848-0.017 1.772-0.008 2.066 0.025l0.521 0.059v0.764c0 0.428-0.042 1.411-0.084 2.201-0.336 5.778-1.268 11.313-2.772 16.521-0.185 0.638-0.336 1.209-0.336 1.285 0 0.109 0.21 0.126 1.495 0.126h1.503l0.084-0.361c0.050-0.193 0.336-1.277 0.638-2.41 0.966-3.561 1.655-6.963 2.041-9.995 0.151-1.251 0.244-5.652 0.143-6.786-0.059-0.571-0.050-0.773 0.025-0.773 0.319 0 2.461 0.857 5.35 2.142 0.269 0.118 0.462 0.168 0.428 0.109-0.126-0.21-0.512-0.722-2.066-2.721l-1.571-2.033-0.865-0.42c-0.479-0.235-1.092-0.487-1.369-0.571-0.277-0.076-0.538-0.168-0.571-0.202-0.042-0.034-0.143-0.361-0.235-0.722-0.454-1.789-1.403-4.409-2.175-5.997-0.311-0.63-0.344-0.672-0.302-0.378z"></path>
<path d="M10.297 8.827c1.394 1.781 3.368 4.359 3.586 4.703 0.563 0.882 0.697 1.663 0.395 2.251-0.428 0.84-1.663 1.545-4.577 2.604-0.781 0.286-1.428 0.529-1.445 0.538-0.050 0.059-0.613 2.604-0.58 2.637 0.067 0.067 1.713-0.227 2.704-0.487 3.494-0.89 6.408-2.587 7.189-4.183 0.252-0.496 0.277-0.622 0.277-1.31 0-0.722-0.017-0.806-0.328-1.436-0.613-1.243-2.352-2.738-4.628-3.998-1.655-0.907-2.688-1.436-2.595-1.319z"></path>
<path d="M56.676 11.918c-1.008 0.328-1.823 1.041-2.276 2.007-0.252 0.521-0.269 0.63-0.269 1.453 0 0.848 0.008 0.907 0.311 1.512 0.344 0.689 0.949 1.369 1.067 1.184 0.042-0.067-0.034-0.218-0.218-0.42-1.209-1.31-1.235-3.192-0.067-4.451 0.924-0.999 2.276-1.411 3.528-1.075 2.679 0.714 3.612 3.796 1.722 5.661-0.227 0.227-0.563 0.479-0.756 0.563-0.218 0.101-0.336 0.21-0.336 0.311 0 0.193 0.017 0.193 0.428-0.025 0.428-0.21 1.025-0.756 1.335-1.218 0.664-0.957 0.773-2.343 0.277-3.418-0.302-0.638-0.974-1.394-1.52-1.713-0.899-0.529-2.243-0.68-3.225-0.37z"></path>
<path d="M57.054 12.724c-0.798 0.244-1.419 0.756-1.806 1.495-0.16 0.294-0.193 0.487-0.193 1.151 0 0.706 0.025 0.848 0.227 1.218 0.328 0.596 0.554 0.848 0.672 0.731 0.059-0.059 0.008-0.193-0.176-0.454-0.756-1.050-0.664-2.276 0.244-3.183 0.563-0.571 1.1-0.781 1.949-0.773 1.352 0.017 2.461 1.025 2.57 2.335 0.067 0.907-0.294 1.646-1.092 2.226-0.202 0.143-0.286 0.26-0.235 0.328 0.084 0.151 0.454-0.050 0.857-0.47 1.167-1.209 0.941-3.225-0.47-4.174-0.756-0.512-1.747-0.68-2.545-0.428z"></path>
<path d="M57.163 13.648c-1.109 0.395-1.562 1.781-0.907 2.797 0.109 0.16 0.143 0.176 0.202 0.076 0.042-0.076 0-0.277-0.109-0.521-0.344-0.781-0.017-1.613 0.789-2.016 0.68-0.336 1.344-0.244 1.907 0.26 0.672 0.605 0.748 1.461 0.202 2.175-0.412 0.546-0.361 0.756 0.084 0.336 0.487-0.454 0.697-1.386 0.445-1.999-0.412-0.974-1.587-1.478-2.612-1.109z"></path>
<path d="M57.566 14.967c-0.193 0.092-0.37 0.403-0.37 0.655 0 0.084 0.092 0.269 0.21 0.403 0.118 0.143 0.21 0.302 0.202 0.361 0 0.067-0.193 0.857-0.437 1.755l-0.437 1.638-3.989 0.042c-3.595 0.042-4.015 0.059-4.258 0.185-0.428 0.235-0.773 0.664-0.907 1.117-0.168 0.563-1.218 7.408-1.218 7.945 0 0.512 0.227 0.932 0.613 1.151 0.244 0.126 0.672 0.143 4.846 0.143 3.511 0 4.645-0.025 4.88-0.109 0.37-0.126 0.89-0.63 1.050-0.991 0.126-0.294 1.293-7.677 1.293-8.172 0-0.596-0.437-1.134-1.016-1.26-0.252-0.050-0.286-0.092-0.277-0.311 0.008-0.134 0.042-0.916 0.076-1.73l0.059-1.478 0.252-0.109c0.479-0.202 0.571-0.848 0.168-1.167-0.227-0.185-0.462-0.202-0.739-0.067zM52.241 22.585c0 0.134-0.025 0.361-0.050 0.504l-0.050 0.26h-2.822l-0.050 0.311c-0.034 0.176-0.076 0.42-0.101 0.546l-0.050 0.235h1.058c1.176 0 1.184 0.008 0.932 0.546-0.185 0.378-0.428 0.462-1.335 0.462h-0.789l-0.092 0.521c-0.050 0.294-0.134 0.823-0.193 1.176l-0.101 0.655h-0.571c-0.554 0-0.571-0.008-0.529-0.185 0.017-0.109 0.193-1.176 0.378-2.377 0.193-1.201 0.386-2.293 0.437-2.419 0.168-0.428 0.37-0.47 2.234-0.479h1.697v0.244zM54.308 24.189c0.101 0.991 0.193 1.898 0.21 2.016 0.025 0.143 0.286-0.403 0.873-1.806l0.84-2.016 0.823-0.025c0.798-0.025 0.815-0.017 0.815 0.168s-0.714 4.703-0.798 5.081c-0.042 0.176-0.092 0.193-0.546 0.193-0.412 0-0.504-0.025-0.504-0.134 0-0.076 0.134-0.966 0.302-1.982 0.16-1.016 0.286-1.856 0.269-1.873s-0.403 0.873-0.857 1.982l-0.831 2.007h-1.142l-0.042-0.277c-0.025-0.143-0.101-0.932-0.176-1.739-0.218-2.478-0.143-2.612-0.806 1.445l-0.092 0.571h-0.538c-0.521 0-0.538-0.008-0.496-0.185 0.017-0.109 0.193-1.176 0.378-2.377 0.193-1.201 0.386-2.293 0.437-2.419 0.134-0.353 0.437-0.479 1.117-0.454l0.588 0.017 0.176 1.806z"></path>
<path d="M17.47 19.889c0 0.101-1.915 11.389-1.974 11.666l-0.042 0.193h2.419l0.050-0.235c0.286-1.361 1.814-10.843 1.772-11.019-0.025-0.126-0.143-0.319-0.26-0.428-0.193-0.185-0.302-0.202-1.092-0.227-0.546-0.025-0.873 0-0.873 0.050z"></path>
<path d="M20.116 25.76l-1.016 5.946 1.176 0.025c0.756 0.017 1.193-0.008 1.226-0.067 0.067-0.109 1.856-10.801 1.848-11.078 0-0.109-0.126-0.319-0.286-0.479l-0.286-0.286h-1.655l-1.008 5.938z"></path>
<path d="M33.638 20.006c-0.202 0.873-1.722 10.18-1.722 10.566 0 0.403 0.042 0.538 0.21 0.747 0.118 0.134 0.344 0.294 0.504 0.344 0.319 0.101 2.679 0.16 2.78 0.067 0.034-0.034 0.126-0.445 0.202-0.907l0.143-0.84h-0.47c-0.554 0-0.848-0.16-0.848-0.47 0-0.118 0.193-1.344 0.42-2.721 0.235-1.377 0.42-2.528 0.42-2.553s0.126-0.050 0.277-0.050c0.454 0 0.991-0.336 1.209-0.756 0.109-0.202 0.193-0.47 0.193-0.605v-0.235h-0.672c-0.479 0-0.672-0.034-0.672-0.109 0-0.050 0.059-0.504 0.143-0.991 0.134-0.873 0.134-0.899-0.025-1.176-0.235-0.403-0.47-0.496-1.31-0.496-0.697 0-0.739 0.008-0.781 0.185z"></path>
<path d="M38.299 19.897c0 0.042-0.378 2.301-0.84 5.014-0.47 2.721-0.865 5.157-0.899 5.409-0.050 0.546 0.109 1.008 0.428 1.218 0.26 0.176 1.873 0.328 2.62 0.244l0.521-0.050 0.101-0.647c0.050-0.353 0.118-0.739 0.143-0.873l0.050-0.227h-0.521c-0.403 0-0.546-0.034-0.68-0.168-0.092-0.092-0.168-0.218-0.16-0.277 0-0.050 0.202-1.268 0.437-2.704 0.336-1.991 0.47-2.604 0.563-2.62 0.983-0.126 1.394-0.479 1.545-1.31l0.059-0.311h-0.672c-0.37 0-0.689-0.025-0.706-0.067-0.025-0.034 0.008-0.344 0.067-0.689 0.067-0.344 0.118-0.815 0.118-1.041 0.008-0.353-0.025-0.437-0.277-0.689-0.286-0.286-0.286-0.286-1.092-0.286-0.445 0-0.806 0.034-0.806 0.076z"></path>
<path d="M42.919 19.855c0 0.050-0.244 1.403-0.294 1.621l-0.042 0.193h2.419l0.050-0.26c0.025-0.143 0.050-0.437 0.050-0.638 0-0.319-0.042-0.42-0.286-0.664-0.286-0.286-0.286-0.286-1.092-0.286-0.445 0-0.806 0.017-0.806 0.034z"></path>
<path d="M10.919 22.392c-1.335 0.26-2.453 1.092-2.906 2.175l-0.118 0.294h1.159c1.075 0 1.176-0.017 1.327-0.176 0.235-0.26 0.554-0.403 1.058-0.462 0.554-0.067 1.369 0.092 1.587 0.311 0.244 0.244 0.202 0.638-0.084 0.907-0.311 0.286-0.647 0.386-2.159 0.638-1.587 0.269-2.335 0.571-2.982 1.209-0.361 0.37-0.504 0.588-0.655 1.016-0.227 0.689-0.311 1.604-0.185 2.083 0.134 0.479 0.655 1.041 1.209 1.285 0.403 0.185 0.546 0.202 1.781 0.202 1.041-0.008 1.453-0.042 1.839-0.16 1.613-0.487 2.637-1.512 3.024-3.040 0.252-0.999 0.731-4.25 0.68-4.569-0.118-0.697-0.722-1.293-1.596-1.562-0.412-0.134-2.52-0.235-2.982-0.151zM12.808 27.481c-0.176 1.176-0.58 1.881-1.302 2.285-0.412 0.235-0.538 0.26-1.151 0.26-0.638 0-0.714-0.017-0.915-0.227-0.286-0.277-0.302-0.806-0.042-1.31 0.218-0.42 0.588-0.613 1.772-0.89 0.487-0.118 1.033-0.269 1.218-0.336 0.479-0.176 0.479-0.176 0.42 0.218z"></path>
<path d="M26.893 22.467c-0.244 0.067-0.664 0.227-0.924 0.353-0.63 0.302-1.655 1.327-2.007 1.999-1.083 2.1-1.142 4.897-0.126 6.022 1.075 1.193 3.528 1.436 5.249 0.512 1.478-0.79 2.578-2.822 2.713-5.023 0.126-1.848-0.571-3.242-1.873-3.746-0.638-0.244-2.343-0.311-3.032-0.118zM28.8 24.584c0.588 0.445 0.798 1.369 0.563 2.536-0.277 1.377-0.68 2.108-1.411 2.553-0.722 0.454-1.646 0.361-2.117-0.202-0.277-0.328-0.42-1.050-0.344-1.789 0.118-1.293 0.42-2.133 0.983-2.73 0.588-0.63 1.722-0.815 2.326-0.37z"></path>
<path d="M41.709 26.893c-0.403 2.419-0.756 4.493-0.781 4.619l-0.042 0.235h2.419l0.521-3.049c0.949-5.602 0.916-5.3 0.748-5.644-0.193-0.412-0.554-0.546-1.419-0.546h-0.706l-0.739 4.384z"></path>
</symbol>
<symbol id="icon-Logo-KIL-06" viewBox="0 0 32 32">
<path d="M3.052 15.5v3.916h7.831v-1.952h-2.845c-1.564 0-2.837-0.005-2.832-0.010 0.005-0.008 0.123-0.030 0.26-0.053 2.162-0.348 4.158-2.134 5.064-4.534 0.143-0.38 0.323-0.988 0.345-1.166l0.015-0.118h-7.839v3.916z"></path>
<path d="M27.009 11.647c-0.133 0.133-0.038 0.373 0.145 0.373 0.13 0 0.218-0.088 0.218-0.215 0-0.13-0.088-0.22-0.213-0.22-0.063 0-0.11 0.020-0.15 0.063z"></path>
<path d="M13.028 11.627c-0.010 0.008-0.018 0.453-0.018 0.988v0.971h0.4v-0.963l0.963 0.963h0.545l-0.533-0.52-0.533-0.518 0.468-0.455c0.255-0.25 0.465-0.46 0.465-0.468s-0.115-0.015-0.255-0.015h-0.258l-0.863 0.863v-0.863h-0.183c-0.103 0-0.193 0.008-0.2 0.018z"></path>
<path d="M18.189 12.585v0.976h0.375v-0.338c0-0.185 0.008-0.338 0.020-0.335 0.010 0 0.153 0.153 0.318 0.335l0.3 0.335h0.245c0.133 0.002 0.243-0.002 0.243-0.008 0-0.008-0.153-0.178-0.338-0.378-0.185-0.203-0.338-0.375-0.338-0.388 0-0.018 0.15-0.188 0.473-0.533l0.088-0.093h-0.503l-0.233 0.255c-0.13 0.143-0.243 0.26-0.255 0.265-0.010 0.005-0.020-0.233-0.020-0.53v-0.54h-0.375v0.976z"></path>
<path d="M25.295 12.585v0.976h0.373l0.015-0.681 0.62 0.681h0.498l-0.115-0.128c-0.063-0.070-0.223-0.245-0.355-0.388l-0.24-0.26 0.278-0.298c0.153-0.163 0.278-0.303 0.278-0.313 0-0.008-0.11-0.015-0.243-0.012l-0.245 0.002-0.475 0.525-0.008-0.54-0.005-0.54h-0.375v0.976z"></path>
<path d="M15.677 12.169c-0.055 0.020-0.13 0.060-0.17 0.090l-0.070 0.053v-0.153h-0.375v1.401h0.375v-0.42c0-0.375 0.005-0.425 0.050-0.5 0.093-0.15 0.335-0.203 0.493-0.105l0.080 0.048 0.028-0.093c0.075-0.275 0.075-0.278 0.020-0.308-0.085-0.045-0.323-0.053-0.43-0.012z"></path>
<path d="M16.746 12.182c-0.233 0.080-0.428 0.278-0.485 0.488-0.070 0.255 0.035 0.588 0.233 0.746 0.27 0.213 0.678 0.228 0.933 0.035l0.088-0.068v0.178h0.375v-1.401h-0.375v0.173l-0.123-0.075c-0.208-0.13-0.42-0.155-0.645-0.075zM17.288 12.54c0.213 0.108 0.285 0.325 0.17 0.495-0.080 0.115-0.165 0.173-0.295 0.195-0.21 0.038-0.368-0.020-0.485-0.18-0.070-0.095-0.073-0.285 0-0.383 0.073-0.1 0.248-0.183 0.385-0.183 0.070 0 0.158 0.023 0.225 0.055z"></path>
<path d="M20.276 12.157c-0.353 0.090-0.583 0.368-0.585 0.703 0 0.278 0.16 0.525 0.423 0.655 0.095 0.045 0.158 0.058 0.353 0.058 0.203 0 0.255-0.010 0.36-0.060 0.575-0.283 0.558-1.051-0.030-1.309-0.128-0.058-0.393-0.080-0.52-0.048zM20.666 12.542c0.258 0.135 0.268 0.49 0.020 0.643-0.058 0.035-0.128 0.050-0.22 0.050-0.368 0-0.535-0.395-0.27-0.643 0.128-0.12 0.305-0.138 0.47-0.050z"></path>
<path d="M24.176 12.177c-0.288 0.12-0.385 0.383-0.215 0.583 0.078 0.093 0.203 0.16 0.443 0.235 0.235 0.075 0.29 0.108 0.29 0.163 0 0.16-0.348 0.165-0.483 0.005-0.030-0.038-0.068-0.065-0.080-0.063-0.26 0.073-0.313 0.093-0.313 0.12 0 0.075 0.203 0.263 0.34 0.313 0.155 0.060 0.425 0.070 0.563 0.025 0.205-0.070 0.333-0.23 0.328-0.415-0.003-0.213-0.135-0.338-0.493-0.458-0.12-0.040-0.25-0.093-0.283-0.115l-0.065-0.043 0.058-0.045c0.085-0.070 0.233-0.063 0.323 0.015 0.093 0.078 0.095 0.078 0.268 0 0.153-0.068 0.158-0.090 0.033-0.203-0.163-0.15-0.503-0.205-0.713-0.118z"></path>
<path d="M21.272 12.18c0.003 0.012 0.17 0.328 0.37 0.701l0.363 0.681h0.325l0.088-0.213c0.048-0.115 0.093-0.213 0.1-0.213s0.053 0.093 0.103 0.208l0.088 0.205 0.323 0.015 0.37-0.691c0.203-0.38 0.368-0.696 0.368-0.703s-0.090-0.010-0.203-0.005l-0.2 0.008-0.188 0.363c-0.105 0.2-0.213 0.408-0.24 0.463l-0.053 0.098-0.070-0.135c-0.038-0.075-0.070-0.155-0.073-0.178 0-0.023 0.068-0.173 0.153-0.333l0.15-0.29h-0.423l-0.045 0.125c-0.025 0.068-0.053 0.125-0.060 0.125s-0.033-0.058-0.058-0.125l-0.045-0.125h-0.198c-0.11 0-0.2 0.005-0.2 0.012s0.065 0.145 0.148 0.308l0.148 0.293-0.165 0.325-0.195-0.388c-0.108-0.213-0.215-0.423-0.235-0.463-0.038-0.073-0.043-0.075-0.248-0.083-0.113-0.005-0.203 0.002-0.198 0.015z"></path>
<path d="M26.971 12.86v0.701h0.375v-1.401h-0.375v0.701z"></path>
<path d="M13.028 14.579c-0.010 0.008-0.018 0.453-0.018 0.988v0.971h0.4v-1.977h-0.183c-0.103 0-0.193 0.008-0.2 0.018z"></path>
<path d="M17.221 14.732l-0.183 0.090v0.29h-0.275v0.325h0.275v0.318c0.003 0.358 0.028 0.505 0.105 0.615 0.090 0.125 0.388 0.22 0.568 0.18 0.078-0.017 0.078-0.017 0.078-0.183v-0.168l-0.123 0.008c-0.223 0.017-0.228 0.008-0.228-0.408v-0.363h0.35v-0.325h-0.35v-0.238c0-0.13-0.008-0.238-0.017-0.235-0.012 0-0.103 0.043-0.2 0.093z"></path>
<path d="M20.103 14.732l-0.175 0.093-0.008 0.143-0.008 0.145h-0.273v0.325h0.27l0.010 0.38c0.012 0.435 0.048 0.548 0.205 0.643 0.108 0.068 0.335 0.113 0.45 0.093l0.090-0.017v-0.335l-0.123 0.008c-0.223 0.017-0.228 0.008-0.228-0.408v-0.363h0.35v-0.325h-0.35v-0.238c0-0.13-0.008-0.238-0.017-0.238-0.012 0-0.098 0.043-0.195 0.095z"></path>
<path d="M23.005 14.732l-0.175 0.093-0.008 0.143-0.008 0.145h-0.273v0.325h0.268l0.012 0.385c0.012 0.36 0.017 0.395 0.080 0.5 0.098 0.168 0.373 0.273 0.603 0.23l0.090-0.017-0.008-0.168-0.008-0.165-0.13 0.008c-0.23 0.012-0.233 0.008-0.233-0.41v-0.36l0.363-0.015v-0.3l-0.363-0.015v-0.235c0-0.13-0.008-0.238-0.017-0.238-0.012 0-0.098 0.043-0.195 0.095z"></path>
<path d="M14.354 15.124c-0.055 0.018-0.123 0.058-0.153 0.085-0.075 0.070-0.090 0.065-0.090-0.023v-0.075h-0.375v1.401h0.37l0.010-0.438 0.008-0.438 0.093-0.090c0.078-0.080 0.11-0.095 0.225-0.103 0.158-0.012 0.235 0.023 0.313 0.14 0.055 0.080 0.058 0.11 0.058 0.505v0.423h0.388l-0.008-0.443c-0.008-0.53-0.035-0.64-0.193-0.798-0.168-0.165-0.43-0.225-0.646-0.148z"></path>
<path d="M15.782 15.122c-0.215 0.078-0.32 0.205-0.32 0.388 0 0.2 0.125 0.31 0.488 0.428 0.255 0.083 0.313 0.118 0.313 0.185 0 0.158-0.373 0.148-0.485-0.012l-0.040-0.058-0.168 0.045c-0.095 0.025-0.175 0.048-0.18 0.053s0.018 0.050 0.048 0.1c0.118 0.19 0.33 0.29 0.62 0.293 0.353 0.003 0.595-0.195 0.573-0.46-0.017-0.218-0.16-0.34-0.513-0.45-0.21-0.063-0.305-0.113-0.305-0.155 0-0.040 0.105-0.090 0.19-0.090 0.078 0 0.2 0.060 0.218 0.11 0.012 0.028 0.043 0.023 0.178-0.030 0.090-0.035 0.165-0.080 0.165-0.095 0-0.063-0.175-0.203-0.303-0.243-0.153-0.050-0.35-0.053-0.478-0.008z"></path>
<path d="M17.922 15.142c0.008 0.018 0.148 0.328 0.315 0.688l0.3 0.655-0.135 0.29c-0.075 0.16-0.138 0.295-0.138 0.303 0 0.005 0.093 0.010 0.208 0.010h0.205l0.155-0.345c0.085-0.188 0.28-0.613 0.43-0.943 0.153-0.328 0.285-0.618 0.293-0.643 0.012-0.043-0.003-0.048-0.19-0.040l-0.205 0.008-0.213 0.483-0.215 0.485-0.135-0.323c-0.073-0.175-0.165-0.393-0.203-0.483l-0.070-0.163-0.208-0.008c-0.163-0.005-0.205 0-0.195 0.025z"></path>
<path d="M20.891 15.545c0 0.538 0.028 0.648 0.195 0.816 0.13 0.13 0.253 0.178 0.453 0.178 0.143 0 0.285-0.050 0.37-0.13l0.058-0.053v0.158h0.375v-1.401h-0.373l-0.015 0.906-0.090 0.083c-0.168 0.153-0.403 0.133-0.533-0.045-0.048-0.065-0.053-0.113-0.060-0.508l-0.008-0.435h-0.373v0.433z"></path>
<path d="M27.844 17.561c-0.050 0.050-0.073 0.098-0.073 0.153 0 0.093 0.118 0.225 0.2 0.225 0.17 0 0.288-0.18 0.213-0.325-0.073-0.14-0.228-0.163-0.34-0.053z"></path>
<path d="M28.52 17.561c-0.050 0.050-0.073 0.098-0.073 0.153 0 0.093 0.118 0.225 0.2 0.225 0.17 0 0.288-0.18 0.213-0.325-0.073-0.14-0.228-0.163-0.34-0.053z"></path>
<path d="M13.028 17.531c-0.010 0.008-0.018 0.453-0.018 0.988v0.971h1.376v-0.35l-0.48-0.005-0.483-0.008-0.008-0.808-0.005-0.806h-0.183c-0.103 0-0.193 0.008-0.2 0.017z"></path>
<path d="M20.248 17.684l-0.183 0.090v0.29h-0.275v0.325h0.27l0.010 0.393c0.010 0.438 0.030 0.505 0.178 0.618 0.088 0.068 0.25 0.113 0.398 0.115 0.16 0 0.17-0.012 0.17-0.198v-0.165h-0.155c-0.208 0-0.22-0.025-0.22-0.445v-0.318h0.375v-0.325h-0.373l-0.008-0.235-0.008-0.233-0.18 0.088z"></path>
<path d="M15.027 18.079c-0.235 0.073-0.4 0.218-0.498 0.433-0.038 0.090-0.045 0.15-0.038 0.305 0.010 0.163 0.023 0.21 0.093 0.318 0.15 0.235 0.38 0.355 0.678 0.355 0.448 0 0.778-0.298 0.781-0.708 0.003-0.338-0.205-0.6-0.555-0.703-0.163-0.050-0.3-0.048-0.46 0zM15.42 18.424c0.143 0.060 0.225 0.173 0.238 0.32 0.008 0.108 0 0.148-0.050 0.218-0.168 0.25-0.523 0.25-0.688 0.003-0.203-0.298 0.155-0.688 0.5-0.54z"></path>
<path d="M16.801 18.064c-0.548 0.135-0.761 0.721-0.425 1.158 0.058 0.075 0.138 0.14 0.24 0.19 0.133 0.068 0.183 0.078 0.345 0.078 0.193 0 0.358-0.053 0.458-0.143 0.115-0.105 0.078 0.14-0.040 0.258-0.183 0.183-0.508 0.175-0.751-0.020l-0.098-0.080-0.315 0.165 0.053 0.070c0.123 0.168 0.405 0.308 0.676 0.34 0.275 0.033 0.598-0.085 0.761-0.275 0.145-0.17 0.16-0.265 0.16-1.046v-0.696h-0.375v0.175l-0.098-0.065c-0.178-0.118-0.4-0.158-0.59-0.11zM17.291 18.457c0.13 0.075 0.185 0.17 0.185 0.315 0 0.15-0.053 0.238-0.188 0.313-0.203 0.115-0.423 0.090-0.578-0.068-0.13-0.128-0.15-0.25-0.070-0.4 0.085-0.16 0.235-0.235 0.428-0.22 0.080 0.008 0.18 0.033 0.223 0.060z"></path>
<path d="M18.655 18.079c-0.235 0.073-0.4 0.218-0.498 0.433-0.038 0.088-0.045 0.148-0.038 0.3 0.012 0.223 0.055 0.315 0.21 0.468 0.295 0.285 0.838 0.283 1.128-0.008 0.153-0.153 0.208-0.28 0.208-0.495 0-0.345-0.198-0.593-0.55-0.698-0.163-0.050-0.3-0.048-0.46 0zM19.112 18.457c0.318 0.238 0.173 0.693-0.223 0.693-0.365 0-0.533-0.408-0.268-0.655 0.12-0.113 0.363-0.13 0.49-0.038z"></path>
<path d="M21.514 18.079c-0.255 0.078-0.46 0.275-0.525 0.505-0.043 0.153-0.015 0.383 0.060 0.513 0.145 0.245 0.373 0.373 0.696 0.388 0.248 0.012 0.398-0.025 0.583-0.15 0.193-0.128 0.193-0.155-0.008-0.233l-0.17-0.068-0.11 0.058c-0.125 0.065-0.345 0.078-0.448 0.023-0.075-0.038-0.2-0.15-0.2-0.18 0-0.010 0.253-0.020 0.56-0.020 0.64 0 0.613 0.010 0.578-0.22-0.043-0.285-0.248-0.518-0.53-0.605-0.188-0.058-0.323-0.060-0.485-0.010zM21.902 18.424c0.080 0.033 0.215 0.158 0.215 0.195 0 0.012-0.163 0.020-0.363 0.020-0.405 0-0.435-0.015-0.275-0.143 0.138-0.11 0.275-0.135 0.423-0.073z"></path>
<path d="M23.396 18.077c-0.060 0.017-0.14 0.065-0.18 0.103l-0.073 0.070v-0.185h-0.375v1.401h0.375v-0.395c0-0.433 0.020-0.515 0.158-0.615 0.098-0.073 0.338-0.075 0.415-0.005 0.030 0.028 0.058 0.043 0.063 0.038 0.010-0.012 0.090-0.338 0.090-0.368s-0.195-0.080-0.293-0.078c-0.038 0-0.12 0.015-0.18 0.035z"></path>
<path d="M24.484 18.082c-0.438 0.133-0.653 0.59-0.465 0.993 0.115 0.243 0.35 0.395 0.633 0.41 0.198 0.012 0.358-0.025 0.473-0.113l0.083-0.060 0.008 0.075 0.008 0.078h0.398v-1.401h-0.4v0.173l-0.090-0.060c-0.113-0.075-0.313-0.138-0.433-0.135-0.050 0-0.145 0.017-0.213 0.040zM24.982 18.437c0.15 0.070 0.218 0.155 0.233 0.298 0.020 0.213-0.098 0.353-0.335 0.408-0.315 0.073-0.625-0.195-0.535-0.463 0.033-0.1 0.168-0.235 0.265-0.265 0.12-0.035 0.268-0.028 0.373 0.023z"></path>
<path d="M26.583 18.082c-0.070 0.025-0.163 0.073-0.208 0.103l-0.080 0.058v-0.178h-0.375v1.977h0.375v-0.363c0-0.335 0.015-0.415 0.065-0.335 0.008 0.015 0.075 0.055 0.145 0.088 0.1 0.045 0.17 0.060 0.318 0.060 0.31 0 0.535-0.14 0.688-0.425 0.035-0.065 0.048-0.14 0.048-0.288 0-0.168-0.012-0.22-0.068-0.328-0.168-0.32-0.578-0.485-0.908-0.368zM27.009 18.464c0.098 0.060 0.188 0.21 0.188 0.313 0 0.215-0.283 0.42-0.523 0.375-0.44-0.080-0.515-0.578-0.11-0.728 0.128-0.048 0.335-0.028 0.445 0.040z"></path>
<path d="M27.797 18.765v0.701h0.375v-1.401h-0.375v0.701z"></path>
<path d="M28.472 18.765v0.701h0.375v-1.401h-0.375v0.701z"></path>
</symbol>
<symbol id="icon-logo-polskie-stowarzyszenie-logoterapii" viewBox="0 0 19 32">
<path style="fill: transparent" d="M18.541 31.982l-9.018-3.682c-0.026-0.011-0.057-0.017-0.089-0.017s-0.063 0.006-0.091 0.018l0.002-0.001-9.018 3.682c-0.026 0.011-0.057 0.017-0.089 0.017-0.131 0-0.237-0.106-0.237-0.237v0-31.763h18.868v31.763c0 0 0 0 0 0 0 0.131-0.106 0.237-0.237 0.237-0.032 0-0.063-0.006-0.091-0.018l0.002 0.001z"></path>
<path d="M16.782 12.854c-0.030-0.066-0.055-0.135-0.087-0.2-0.029-0.058-0.034-0.141-0.087-0.17-0.059-0.032-0.117 0.035-0.174 0.060-0.291 0.128-0.539 0.264-0.774 0.42l0.018-0.011c-0.047-0.016-0.088-0.037-0.124-0.064l0.001 0.001c-0.152-0.076-0.328-0.137-0.513-0.175l-0.014-0.002c-0.026-0.014-0.056 0.003-0.082-0.013l-0.061-0.004c-0.066-0.014-0.133 0.006-0.199-0.012-0.071 0.018-0.143-0.003-0.214 0.012l-0.075 0.005c-0.027 0.014-0.058 0-0.085 0.012-0.102 0.021-0.205 0.038-0.305 0.064-0.023 0.006-0.046 0.014-0.068 0.020-1.213-0.953-2.762-1.528-4.445-1.528-3.992 0-7.228 3.236-7.228 7.228 0 0.486 0.048 0.961 0.139 1.42l-0.008-0.046-0.064-0.033c-0.046-0.025-0.065-0.020-0.088 0.028-0.033 0.072-0.075 0.14-0.113 0.21-0.087 0.159-0.087 0.158 0.075 0.238 0.113 0.055 0.223 0.108 0.335 0.162 0.887 3.059 3.663 5.258 6.954 5.258 2.095 0 3.982-0.891 5.302-2.315l0.004-0.005c0.257 0.125 0.584 0.259 0.919 0.375l0.069 0.021c0.15 0.050 0.301 0.098 0.451 0.146 0.048 0.015 0.075 0 0.090-0.052 0.025-0.115 0.054-0.212 0.090-0.307l-0.005 0.015c0.032-0.078 0.011-0.103-0.065-0.125-0.486-0.142-0.892-0.295-1.284-0.473l0.060 0.024c1-1.228 1.606-2.813 1.606-4.538 0-1.741-0.617-3.339-1.644-4.585l0.010 0.012c0.137-0.107 0.276-0.212 0.419-0.311 0.098-0.080 0.209-0.15 0.329-0.203l0.009-0.004c0.037 0.032 0.070 0.067 0.1 0.105l0.001 0.002c0.132 0.173 0.222 0.385 0.248 0.617l0.001 0.006c0.017 0.054-0.003 0.11 0.012 0.164v0.017c-0.012 0.033 0.002 0.070-0.011 0.103-0.024 0.048-0.008 0.102-0.020 0.15-0.004 0.014-0.007 0.030-0.007 0.047s0.003 0.033 0.007 0.049l-0-0.001c0.059 0.064 0.117 0.059 0.159-0.014 0.028-0.066 0.046-0.143 0.051-0.224l0-0.002c0.004-0.040 0.006-0.087 0.006-0.135s-0.002-0.094-0.006-0.141l0 0.006c-0.026-0.277-0.116-0.529-0.256-0.746l0.004 0.007c-0.032-0.049-0.084-0.085-0.103-0.144 0.241-0.121 0.473-0.258 0.722-0.364 0.035-0.016 0.027-0.032 0.016-0.056zM4.419 18.76c-0.212-0.009-0.411-0.058-0.592-0.14l0.010 0.004c0.023-0.002 0.044-0.006 0.065-0.012l-0.002 0.001q0.171-0.050 0.343-0.096c0.489-0.14 1.073-0.253 1.672-0.316l0.047-0.004c0.096-0.001 0.189-0.011 0.279-0.029l-0.009 0.002c-0.459 0.37-1.049 0.595-1.692 0.595-0.043 0-0.085-0.001-0.127-0.003l0.006 0zM8.817 14.778c-0.378 0.61-0.736 1.234-1.152 1.82-0.248 0.355-0.49 0.662-0.748 0.956l0.011-0.012c-0.040 0.045-0.083 0.088-0.125 0.132h-0.113c-0.153-0.163-0.248-0.382-0.253-0.623v-0.001c-0.002-0.033-0.003-0.072-0.003-0.111 0-0.34 0.096-0.658 0.262-0.927l-0.004 0.008c0.385-0.652 0.973-1.151 1.675-1.414l0.023-0.007c0.183-0.070 0.394-0.114 0.615-0.122l0.004-0c-0.068 0.108-0.13 0.205-0.191 0.303zM9.001 17.135c-0.048-0.029-0.102-0.010-0.158 0.068-0.073 0.098-0.152 0.184-0.239 0.262l-0.002 0.001c-0.162 0.15-0.351 0.273-0.558 0.362l-0.013 0.005-0.012 0.005c-0.006-0.003-0.014-0.006-0.021-0.008l-0.001-0c-0.226-0.059-0.496-0.105-0.772-0.13l-0.020-0.001c0.341-0.353 0.643-0.747 0.895-1.174l0.016-0.029c0.326-0.551 0.624-1.118 0.94-1.675 0.223-0.414 0.456-0.769 0.715-1.102l-0.013 0.017c0.099-0.121 0.209-0.232 0.297-0.361l0.008-0.009h0.002l-0.017 0.018c-0.032 0.058-0.081 0.103-0.116 0.16-0.171 0.277-0.301 0.599-0.373 0.943l-0.003 0.020c-0.079 0.388-0.124 0.835-0.124 1.292 0 0.067 0.001 0.134 0.003 0.2l-0-0.010c0 0.2 0.007 0.401 0.012 0.602 0 0.013 0 0.026 0.002 0.040 0.023 0.408 0.056 0.817 0.044 1.227-0.002 0.19-0.054 0.367-0.144 0.52l0.003-0.005c-0.003 0.005-0.008 0.010-0.011 0.015-0.014-0.016-0.030-0.029-0.048-0.039l-0.001-0c-0.253-0.154-0.546-0.294-0.853-0.403l-0.034-0.010c-0.022-0.010-0.048-0.016-0.075-0.018l-0.001-0c0.164-0.095 0.305-0.2 0.433-0.318l-0.002 0.001c0.097-0.078 0.18-0.169 0.246-0.271l0.003-0.004c0.043-0.079 0.038-0.156-0.012-0.187zM9.588 18.434c0.287-0.36 0.562-0.764 0.809-1.187l0.026-0.048q0.549-0.925 1.128-1.832c0.392-0.628 0.848-1.168 1.37-1.636l0.007-0.006c0.189-0.168 0.399-0.319 0.625-0.446l0.018-0.009c0.273 0.214 0.517 0.436 0.743 0.674l0.003 0.003q-0.181 0.16-0.357 0.328c-0.243 0.232-0.473 0.476-0.699 0.726-0.307 0.338-0.602 0.69-0.889 1.045-0.504 0.623-0.986 1.264-1.491 1.888-0.241 0.298-0.491 0.589-0.745 0.876-0.067 0.075-0.073 0.075-0.153 0.012-0.134-0.11-0.283-0.218-0.439-0.317l-0.019-0.011c0.027-0.014 0.049-0.034 0.064-0.058l0-0.001zM9.501 11.869c0.002 0 0.004 0 0.005 0 1.418 0 2.731 0.447 3.806 1.209l-0.021-0.014c-0.236 0.138-0.44 0.291-0.625 0.464l0.002-0.002c-0.12 0.123-0.244 0.242-0.36 0.369-0.459 0.52-0.873 1.099-1.224 1.72l-0.026 0.051c-0.385 0.664-0.759 1.335-1.159 1.99-0.017 0.027-0.025 0.062-0.063 0.077-0.001-0.004-0.001-0.009-0.001-0.014s0-0.010 0.001-0.014l-0 0.001c0.151-0.523 0.241-1.125 0.25-1.747l0-0.005c0.023-0.584 0.024-1.17 0.067-1.753 0.009-0.266 0.060-0.518 0.147-0.752l-0.005 0.016c0.078-0.187 0.174-0.349 0.289-0.495l-0.003 0.004c0.022-0.029 0.050-0.059 0.019-0.099-0.015-0.018-0.037-0.029-0.062-0.029-0.014 0-0.028 0.004-0.039 0.011l0-0c-0.043 0.017-0.081 0.035-0.116 0.057l0.003-0.002c-0.176 0.115-0.329 0.239-0.467 0.379l-0 0c-0.273 0.285-0.522 0.598-0.741 0.932l-0.015 0.025c-0.020 0.035-0.058 0.059-0.101 0.059-0 0-0 0-0 0v0c-0.153 0.007-0.296 0.026-0.435 0.054l0.018-0.003c-0.565 0.127-1.055 0.394-1.448 0.762l0.002-0.002c-0.22 0.198-0.414 0.418-0.581 0.659l-0.008 0.012c-0.176 0.258-0.296 0.567-0.335 0.902l-0.001 0.010c-0.011 0.028 0 0.060-0.012 0.088l-0.005 0.119c-0.004 0.019-0.006 0.041-0.006 0.063s0.002 0.044 0.006 0.065l-0-0.002c0.011 0.086 0.010 0.173 0.029 0.258 0.040 0.143 0.092 0.268 0.157 0.385l-0.004-0.009c-0.020 0.004-0.042 0.007-0.065 0.007-0.016 0-0.031-0.001-0.046-0.003l0.002 0c-0.048 0.017-0.1-0.003-0.15 0.012l-0.121 0.005c-0.027 0.013-0.058 0-0.086 0.011-0.115 0.012-0.23 0.022-0.344 0.038-0.508 0.069-0.944 0.155-1.372 0.264l0.083-0.018c-0.317 0.079-0.631 0.167-0.943 0.263v0c-0.030-0.045-0.047-0.1-0.047-0.159 0-0.006 0-0.011 0.001-0.017l-0 0.001c-0.005-0.021-0.008-0.046-0.008-0.072 0-0.011 0.001-0.021 0.002-0.032l-0 0.001c0-0.009 0-0.009 0.022-0.029 0.016 0.091 0.086 0.161 0.176 0.176l0.001 0c0.024 0.004 0.051 0.007 0.079 0.007s0.055-0.002 0.082-0.007l-0.003 0c0.147-0.047 0.257-0.168 0.289-0.318l0.001-0.003c0.004-0.026 0.006-0.056 0.006-0.087s-0.002-0.061-0.006-0.091l0 0.003c-0.029-0.125-0.13-0.22-0.255-0.24l-0.002-0c-0.021-0.004-0.046-0.006-0.071-0.006s-0.050 0.002-0.074 0.006l0.003-0c-0.242 0.037-0.428 0.234-0.448 0.478l-0 0.002c-0.012 0.034 0.003 0.070-0.012 0.104 0.003 0.004 0.006 0.009 0.006 0.015s-0.002 0.011-0.006 0.015l0-0c0.016 0.038 0 0.080 0.012 0.119 0.002 0.068 0.023 0.13 0.057 0.183l-0.001-0.001c-0.040 0.028-0.087 0.048-0.137 0.058l-0.002 0-0.191 0.067c0.049-3.626 2.999-6.547 6.632-6.55h0zM2.884 18.916c0.007-0.002 0.015-0.005 0.022-0.008 0.21-0.079 0.422-0.152 0.639-0.21v0c0.188 0.131 0.416 0.218 0.662 0.243l0.006 0c0.028 0.012 0.059 0 0.087 0.012l0.073 0.005c0.050 0.004 0.108 0.006 0.166 0.006s0.117-0.002 0.174-0.007l-0.008 0 0.090-0.005c0.032-0.015 0.068 0 0.101-0.012 0.038-0.006 0.075-0.014 0.113-0.018 0.25-0.033 0.476-0.096 0.688-0.187l-0.017 0.006c0.388-0.164 0.723-0.366 1.024-0.608l-0.008 0.006 0.202 0.008c0.044 0.014 0.091-0.005 0.134 0.012l0.104 0.005c0.027 0.012 0.057-0.003 0.083 0.012 0.127 0.017 0.255 0.024 0.379 0.051 0.297 0.056 0.557 0.132 0.806 0.231l-0.030-0.010c0.217 0.084 0.401 0.175 0.575 0.28l-0.016-0.009-0.006 0.031c-0.004 0.014-0.006 0.031-0.006 0.047s0.002 0.033 0.006 0.049l-0-0.001c0.004 0.035 0.032 0.062 0.067 0.066l0 0c0.012 0.004 0.025 0.006 0.039 0.006s0.028-0.002 0.040-0.006l-0.001 0c0.032-0.022 0.068-0.041 0.108-0.054l0.003-0.001c0.185 0.123 0.366 0.254 0.539 0.395-0.136 0.141-0.283 0.274-0.432 0.405-0.156 0.137-0.317 0.267-0.486 0.387-0.362 0.27-0.779 0.496-1.225 0.66l-0.034 0.011c-0.281 0.107-0.607 0.182-0.947 0.212l-0.014 0.001c-0.026 0.014-0.056 0-0.083 0.011l-0.12 0.005c-0.055 0.017-0.113-0.003-0.166 0.012h-0.255c-0.059-0.015-0.12 0.006-0.178-0.012l-0.107-0.003c-0.027-0.011-0.058 0-0.085-0.011-0.211-0.012-0.407-0.041-0.598-0.084l0.024 0.005c-0.506-0.101-0.948-0.234-1.372-0.404l0.051 0.018c-0.202-0.077-0.402-0.162-0.599-0.25-0.106-0.379-0.181-0.821-0.21-1.275l-0.001-0.019zM9.501 25.13c-2.831-0.003-5.247-1.778-6.2-4.275l-0.015-0.046c0.293 0.127 0.66 0.257 1.036 0.364l0.068 0.017c0.341 0.102 0.74 0.178 1.151 0.213l0.022 0.001c0.027 0.011 0.058-0.002 0.085 0.011l0.121 0.005c0.059 0.014 0.121-0.006 0.181 0.012h0.288c0.055-0.017 0.113 0.002 0.166-0.012l0.12-0.005c0.028-0.013 0.059 0 0.087-0.011 0.079-0.012 0.159-0.024 0.238-0.035 0.449-0.066 0.854-0.188 1.232-0.361l-0.028 0.012c0.535-0.243 0.996-0.537 1.409-0.886l-0.009 0.007c0.206-0.169 0.399-0.352 0.594-0.533 0.016-0.015 0.029-0.054 0.062-0.021 0.049 0.048 0.107 0.086 0.153 0.134 0.384 0.393 0.777 0.776 1.156 1.173 0.178 0.188 0.361 0.369 0.554 0.542 0.113 0.101 0.219 0.212 0.335 0.309 0.066 0.055 0.045 0.075 0.003 0.117-0.182 0.179-0.356 0.367-0.536 0.548-0.244 0.244-0.476 0.5-0.723 0.741-0.175 0.171-0.342 0.351-0.512 0.526-0.011 0.011-0.032 0.018-0.028 0.040 0.027 0.011 0.048-0.005 0.069-0.014q0.715-0.338 1.432-0.674c0.024-0.011 0.047-0.038 0.079-0.019 0.019 0.023 0 0.052 0.013 0.075l0.004 0.075c0.015 0.026 0 0.056 0.012 0.082l0.021 0.249c0.013 0.027 0 0.058 0.011 0.085l0.005 0.075c0.014 0.026 0 0.057 0.012 0.084l0.004 0.075c0.015 0.026 0 0.056 0.012 0.082 0.007 0.083 0.014 0.165 0.021 0.249 0.013 0.027 0 0.058 0.011 0.085l0.011 0.079c0.059-0.133 0.105-0.266 0.15-0.4q0.27-0.784 0.539-1.568c0.018-0.053 0.041-0.055 0.081-0.025 0.139 0.103 0.276 0.207 0.418 0.306 0.232 0.164 0.503 0.332 0.783 0.485l0.045 0.022c-1.202 1.237-2.882 2.006-4.74 2.006h-0zM16.132 18.5c0 0.001 0 0.003 0 0.005 0 1.629-0.59 3.119-1.568 4.27l0.008-0.009c-0.211-0.113-0.418-0.232-0.62-0.361-0.268-0.17-0.524-0.358-0.777-0.548-0.042-0.032-0.075-0.058-0.046-0.134 0.123-0.33 0.232-0.666 0.347-1 0.008-0.022 0.021-0.042 0-0.070-0.073 0.063-0.138 0.131-0.197 0.205l-0.002 0.003c-0.132 0.138-0.269 0.269-0.404 0.404-0.048 0.060-0.096 0.114-0.146 0.166l0-0c-0.023 0.019-0.038 0.024-0.065 0-0.129-0.121-0.263-0.237-0.389-0.36q-0.557-0.543-1.096-1.104c-0.207-0.216-0.42-0.425-0.639-0.63-0.127-0.12-0.123-0.12-0.002-0.249 0.248-0.266 0.48-0.546 0.708-0.827 0.21-0.263 0.417-0.526 0.625-0.79 0.288-0.364 0.574-0.73 0.865-1.093 0.182-0.228 0.367-0.454 0.557-0.675 0.158-0.184 0.324-0.361 0.489-0.541 0.263-0.287 0.531-0.553 0.811-0.806l0.011-0.009c0.012-0.011 0.025-0.021 0.038-0.032 0.929 1.129 1.493 2.589 1.493 4.181 0 0.002 0 0.005 0 0.007v-0zM14.778 13.561c-0.178-0.19-0.362-0.367-0.555-0.535l-0.009-0.008c0.144-0.040 0.31-0.063 0.481-0.063 0.248 0 0.484 0.048 0.701 0.135l-0.013-0.005c0.012 0.005 0.026 0.009 0.041 0.010h0c-0.011 0.006-0.021 0.012-0.030 0.018l0.001-0.001c-0.213 0.14-0.417 0.291-0.616 0.448z"></path>
</symbol>
</defs>
</svg>
